<svg width="750" height="432" viewBox="0 0 750 432" fill="none" xmlns="http://www.w3.org/2000/svg">
<g clip-path="url(#clip0_28_425)">
<path d="M49.616 408.961C27.8275 394.349 11.9853 368.085 15.2276 341.532C34.8468 362.493 61.0389 375.638 89.1698 378.641C100.023 379.758 112.207 379.838 119.914 387.78C124.71 392.722 126.748 399.944 126.852 406.927C126.957 413.91 125.327 420.783 123.707 427.565L124.105 429.26C98.1156 428.272 71.4046 423.573 49.616 408.961Z" fill="#77C7D9"/>
<path d="M15.7732 341.526C23.9237 362.028 38.1448 379.366 56.4164 391.078C60.3064 393.671 64.5693 395.617 69.0481 396.844C73.4486 397.894 78.0421 397.713 82.3514 396.319C86.3948 395.102 90.3937 393.375 94.6542 393.19C96.8364 393.129 99.0065 393.544 101.022 394.406C103.038 395.269 104.854 396.56 106.35 398.195C110.183 402.17 112.399 407.324 114.396 412.443C116.613 418.126 118.828 424.065 123.344 428.274C123.891 428.784 123.09 429.628 122.543 429.118C114.687 421.795 113.823 410.046 107.647 401.55C104.766 397.586 100.706 394.491 95.7427 394.36C91.4025 394.246 87.2772 396.023 83.1936 397.291C79.0091 398.715 74.5495 399.063 70.2044 398.304C65.6793 397.315 61.3507 395.542 57.4039 393.059C48.4318 387.615 40.3473 380.753 33.4465 372.724C25.5213 363.607 19.1703 353.161 14.6681 341.839C14.3897 341.139 15.4967 340.83 15.7732 341.526Z" fill="white"/>
<path d="M50.3173 387.663C47.9916 390.551 44.7441 392.494 41.1547 393.146C37.5653 393.797 33.8678 393.114 30.7225 391.219C30.0873 390.834 30.6399 389.8 31.2759 390.186C34.2017 391.956 37.646 392.592 40.9872 391.978C44.3284 391.365 47.3465 389.542 49.4966 386.84C49.9645 386.253 50.7825 387.08 50.3173 387.663Z" fill="white"/>
<path d="M80.3801 397.214C79.7517 389.574 76.3481 382.459 70.8481 377.287C70.3028 376.775 71.1036 375.931 71.6483 376.442C77.362 381.835 80.8893 389.247 81.5262 397.199C81.5864 397.957 80.44 397.967 80.3801 397.214Z" fill="white"/>
<path d="M26.9633 363.113C28.0894 362.189 28.9748 360.991 29.5399 359.627C30.105 358.264 30.3322 356.777 30.201 355.301C30.1314 354.544 31.278 354.534 31.3471 355.286C31.4847 356.918 31.2319 358.559 30.6108 360.067C29.9896 361.575 29.0191 362.904 27.784 363.936C27.6755 364.044 27.5314 364.105 27.3808 364.107C27.2303 364.109 27.0847 364.052 26.9736 363.947C26.8654 363.837 26.8037 363.688 26.8018 363.532C26.7999 363.376 26.8579 363.225 26.9633 363.113Z" fill="white"/>
<path d="M89.5497 292.94C89.6062 293.411 89.6626 293.883 89.7276 294.359C90.5186 300.691 91.8082 306.946 93.5836 313.063C93.7136 313.538 93.8522 314.018 93.9952 314.488C98.4253 329.178 105.467 342.895 114.763 354.94C118.467 359.729 122.519 364.222 126.884 368.379C132.914 374.119 139.895 379.849 143.62 387.091C144.017 387.842 144.368 388.618 144.672 389.414L126.083 428.629C125.997 428.696 125.92 428.768 125.834 428.836L125.161 430.436C124.922 430.238 124.677 430.027 124.437 429.829C124.298 429.715 124.163 429.592 124.023 429.477C123.931 429.398 123.84 429.319 123.753 429.253C123.722 429.227 123.692 429.2 123.67 429.178C123.583 429.112 123.508 429.042 123.43 428.98C122.06 427.805 120.696 426.618 119.338 425.42C119.329 425.415 119.329 425.415 119.324 425.402C108.996 416.241 99.3208 406.113 91.4468 394.795C91.21 394.454 90.9643 394.11 90.736 393.751C87.2143 388.629 84.1052 383.22 81.4399 377.577C79.9901 374.482 78.6935 371.314 77.5551 368.084C74.6291 359.733 72.9978 350.961 72.721 342.088C72.1718 324.401 77.1257 306.729 88.6592 293.911C88.9545 293.583 89.2457 293.264 89.5497 292.94Z" fill="#77C7D9"/>
<path d="M89.9916 293.271C84.5039 314.691 85.7143 337.345 93.4509 358.016C95.0397 362.497 97.3048 366.692 100.163 370.446C103.062 374.011 106.836 376.712 111.092 378.269C115.033 379.802 119.236 380.901 122.746 383.393C124.524 384.696 126.014 386.372 127.119 388.309C128.224 390.247 128.918 392.403 129.156 394.635C129.891 400.183 128.644 405.672 127.244 410.996C125.689 416.907 123.983 423.022 125.126 429.18C125.264 429.926 124.131 430.103 123.993 429.358C122.005 418.644 128.189 408.727 128.229 398.118C128.248 393.167 126.817 388.181 122.931 385.001C119.532 382.221 115.199 381.084 111.196 379.567C107.022 378.111 103.258 375.626 100.232 372.328C97.1975 368.735 94.7791 364.637 93.0805 360.21C89.102 350.304 86.6617 339.816 85.849 329.131C84.8559 316.941 85.8964 304.666 88.9257 292.837C89.1135 292.105 90.1782 292.544 89.9916 293.271Z" fill="white"/>
<path d="M90.5789 351.511C87.0324 352.376 83.3026 351.915 80.0555 350.212C76.8085 348.508 74.2557 345.672 72.8531 342.21C72.5715 341.509 73.6176 341.026 73.8995 341.728C75.1998 344.954 77.578 347.596 80.6048 349.176C83.6316 350.756 87.1076 351.171 90.4054 350.345C91.1222 350.167 91.2917 351.334 90.5789 351.511Z" fill="white"/>
<path d="M108.995 377.762C112.963 371.273 114.408 363.483 113.043 355.946C112.907 355.199 114.04 355.022 114.176 355.767C115.583 363.613 114.062 371.717 109.919 378.46C109.523 379.103 108.602 378.401 108.995 377.762Z" fill="white"/>
<path d="M86.2961 317.44C87.7361 317.4 89.1438 316.992 90.3928 316.253C91.6418 315.515 92.693 314.468 93.4519 313.208C93.8392 312.561 94.7605 313.263 94.3758 313.907C93.531 315.295 92.3687 316.449 90.9905 317.268C89.6124 318.087 88.0602 318.546 86.4697 318.606C86.3202 318.625 86.1695 318.584 86.0481 318.492C85.9268 318.4 85.8439 318.265 85.8164 318.112C85.7942 317.958 85.8321 317.8 85.9219 317.675C86.0118 317.549 86.1462 317.464 86.2961 317.44Z" fill="white"/>
<path d="M714.549 408.961C736.338 394.349 752.18 368.085 748.938 341.532C729.318 362.493 703.126 375.638 674.995 378.641C664.142 379.758 651.958 379.838 644.251 387.78C639.455 392.722 637.418 399.944 637.313 406.927C637.208 413.91 638.839 420.783 640.458 427.565L640.06 429.26C666.05 428.272 692.761 423.573 714.549 408.961Z" fill="#77C7D9"/>
<path d="M748.392 341.526C740.241 362.028 726.02 379.366 707.749 391.078C703.859 393.671 699.596 395.617 695.117 396.844C690.717 397.894 686.123 397.713 681.814 396.319C677.77 395.102 673.771 393.375 669.511 393.19C667.329 393.129 665.159 393.544 663.143 394.406C661.127 395.269 659.311 396.56 657.815 398.195C653.982 402.17 651.766 407.324 649.769 412.443C647.552 418.126 645.337 424.065 640.822 428.274C640.274 428.784 641.075 429.628 641.622 429.118C649.478 421.795 650.342 410.046 656.518 401.55C659.399 397.586 663.459 394.491 668.422 394.36C672.763 394.246 676.888 396.023 680.972 397.291C685.156 398.715 689.616 399.063 693.961 398.304C698.486 397.315 702.814 395.542 706.761 393.059C715.733 387.615 723.818 380.753 730.719 372.724C738.644 363.607 744.995 353.161 749.497 341.839C749.775 341.139 748.668 340.83 748.392 341.526Z" fill="white"/>
<path d="M713.848 387.663C716.173 390.551 719.421 392.494 723.01 393.146C726.6 393.797 730.297 393.114 733.443 391.219C734.078 390.834 733.525 389.8 732.889 390.186C729.963 391.956 726.519 392.592 723.178 391.978C719.837 391.365 716.819 389.542 714.668 386.84C714.201 386.253 713.383 387.08 713.848 387.663Z" fill="white"/>
<path d="M683.785 397.214C684.413 389.574 687.817 382.459 693.317 377.287C693.862 376.775 693.061 375.931 692.517 376.442C686.803 381.835 683.276 389.247 682.639 397.199C682.579 397.957 683.725 397.967 683.785 397.214Z" fill="white"/>
<path d="M737.202 363.113C736.076 362.189 735.19 360.991 734.625 359.627C734.06 358.264 733.833 356.777 733.964 355.301C734.034 354.544 732.887 354.534 732.818 355.286C732.68 356.918 732.933 358.559 733.554 360.067C734.175 361.575 735.146 362.904 736.381 363.936C736.49 364.044 736.634 364.105 736.784 364.107C736.935 364.109 737.08 364.052 737.191 363.947C737.3 363.837 737.361 363.688 737.363 363.532C737.365 363.376 737.307 363.225 737.202 363.113Z" fill="white"/>
<path d="M674.615 292.94C674.559 293.411 674.502 293.883 674.437 294.359C673.646 300.691 672.357 306.946 670.581 313.063C670.451 313.538 670.313 314.018 670.17 314.488C665.74 329.178 658.698 342.895 649.402 354.94C645.699 359.729 641.646 364.222 637.281 368.379C631.251 374.119 624.27 379.849 620.545 387.091C620.148 387.842 619.797 388.618 619.493 389.414L638.082 428.629C638.168 428.696 638.245 428.768 638.331 428.836L639.004 430.436C639.244 430.238 639.488 430.027 639.728 429.829C639.867 429.715 640.003 429.592 640.142 429.477C640.234 429.398 640.325 429.319 640.412 429.253C640.443 429.227 640.473 429.2 640.495 429.178C640.583 429.112 640.657 429.042 640.735 428.98C642.105 427.805 643.469 426.618 644.827 425.42C644.836 425.415 644.836 425.415 644.841 425.402C655.169 416.241 664.844 406.113 672.718 394.795C672.955 394.454 673.201 394.11 673.429 393.751C676.951 388.629 680.06 383.22 682.725 377.577C684.175 374.482 685.472 371.314 686.61 368.084C689.536 359.733 691.167 350.961 691.444 342.088C691.993 324.401 687.039 306.729 675.506 293.911C675.211 293.583 674.919 293.264 674.615 292.94Z" fill="#77C7D9"/>
<path d="M674.173 293.271C679.661 314.691 678.451 337.345 670.714 358.016C669.125 362.497 666.86 366.692 664.002 370.446C661.103 374.011 657.329 376.712 653.073 378.269C649.132 379.802 644.929 380.901 641.419 383.393C639.641 384.696 638.151 386.372 637.046 388.309C635.941 390.247 635.247 392.403 635.009 394.635C634.274 400.183 635.521 405.672 636.921 410.996C638.476 416.907 640.182 423.022 639.039 429.18C638.901 429.926 640.034 430.103 640.172 429.358C642.16 418.644 635.976 408.727 635.936 398.118C635.917 393.167 637.348 388.181 641.235 385.001C644.633 382.221 648.967 381.084 652.969 379.567C657.143 378.111 660.908 375.626 663.933 372.328C666.968 368.735 669.386 364.637 671.085 360.21C675.063 350.304 677.503 339.816 678.316 329.131C679.309 316.941 678.269 304.666 675.239 292.837C675.052 292.105 673.987 292.544 674.173 293.271Z" fill="white"/>
<path d="M673.586 351.511C677.133 352.376 680.862 351.915 684.109 350.212C687.356 348.508 689.909 345.672 691.312 342.21C691.593 341.509 690.547 341.026 690.265 341.728C688.965 344.954 686.587 347.596 683.56 349.176C680.533 350.756 677.057 351.171 673.76 350.345C673.043 350.167 672.873 351.334 673.586 351.511Z" fill="white"/>
<path d="M655.17 377.762C651.202 371.273 649.757 363.483 651.122 355.946C651.258 355.199 650.125 355.022 649.989 355.767C648.582 363.613 650.103 371.717 654.246 378.46C654.642 379.103 655.563 378.401 655.17 377.762Z" fill="white"/>
<path d="M677.869 317.44C676.429 317.4 675.021 316.992 673.772 316.253C672.523 315.515 671.472 314.468 670.713 313.208C670.326 312.561 669.405 313.263 669.789 313.907C670.634 315.295 671.796 316.449 673.175 317.268C674.553 318.087 676.105 318.546 677.695 318.606C677.845 318.625 677.996 318.584 678.117 318.492C678.238 318.4 678.321 318.265 678.349 318.112C678.371 317.958 678.333 317.8 678.243 317.675C678.153 317.549 678.019 317.464 677.869 317.44Z" fill="white"/>
<path d="M92.5303 280.107C91.7059 279.597 91.0004 278.906 90.4633 278.085C89.9263 277.263 89.5708 276.331 89.4219 275.353C89.2731 274.374 89.3344 273.375 89.6017 272.423C89.869 271.472 90.3357 270.593 90.9689 269.848L79.3788 248.944L91.5071 249.75L100.654 269.477C101.8 270.655 102.487 272.224 102.584 273.888C102.681 275.552 102.182 277.195 101.181 278.505C100.179 279.816 98.7455 280.702 97.1512 280.998C95.5569 281.293 93.9128 280.976 92.5303 280.107Z" fill="#FFB6B6"/>
<path d="M3.3092 422.613H11.3337L15.151 390.765L3.30823 390.766L3.3092 422.613Z" fill="#FFB6B6"/>
<path d="M1.26282 419.918L17.0648 419.917C19.7355 419.917 22.2974 421.009 24.1859 422.952C26.0744 424.896 27.1355 427.531 27.1357 430.28V430.616L1.26326 430.617L1.26282 419.918Z" fill="#2F2E41"/>
<path d="M58.287 422.613H66.3105L70.1278 390.765L58.285 390.766L58.287 422.613Z" fill="#FFB6B6"/>
<path d="M56.2399 419.918L72.0419 419.917C74.7126 419.917 77.2745 421.009 79.163 422.952C81.0515 424.896 82.1126 427.531 82.1127 430.28V430.616L56.2403 430.617L56.2399 419.918Z" fill="#2F2E41"/>
<path d="M78.9193 249.842C78.9193 249.842 81.1264 282.184 76.7796 298.472C72.4328 314.761 71.6566 413.263 71.6566 413.263H57.0866L44.4583 279.18L15.3453 413.735L1.46729 412.753L9.07822 254.199L78.9193 249.842Z" fill="#367DD9"/>
<path d="M15.0991 140.819L26.2376 132.455L44.9017 136.637L49.954 148.99L58.6597 153.432C61.5221 154.892 63.9972 157.046 65.8722 159.708C67.7472 162.37 68.966 165.461 69.4239 168.715L81.8611 257.094L9.07826 254.198L0.266978 150.115C0.174936 149.028 0.29579 147.933 0.622369 146.894C0.948948 145.856 1.47462 144.896 2.16828 144.07C2.86194 143.244 3.70951 142.57 4.6608 142.088C5.61208 141.605 6.64775 141.324 7.70653 141.261L15.0991 140.819Z" fill="#367DD9"/>
<path d="M63.2651 160.335L69.9875 169.66L99.2666 261.555L85.5422 267.209L63.566 224.389L63.2651 160.335Z" fill="#367DD9"/>
<path d="M38.8976 128.088C47.8756 128.088 55.1538 120.598 55.1538 111.36C55.1538 102.121 47.8756 94.6316 38.8976 94.6316C29.9196 94.6316 22.6415 102.121 22.6415 111.36C22.6415 120.598 29.9196 128.088 38.8976 128.088Z" fill="#FFB9B9"/>
<path opacity="0.1" d="M3.45911 180.183L29.9869 218.151L59.6393 238.048L3.45911 180.183Z" fill="black"/>
<path d="M30.2824 123.453C29.1517 121.13 27.9884 118.601 28.4206 116.041C28.8529 113.481 31.7077 111.251 33.9109 112.52C34.825 109.12 38.8718 107.632 42.2782 108.025C45.6847 108.417 48.8212 110.108 52.1756 110.834C55.53 111.56 59.6037 110.984 61.4166 107.991L57.0788 107.913L61.5959 102.522L56.3597 102.119C58.1734 100.104 57.6916 96.6823 55.9358 94.6145C54.18 92.5467 51.5156 91.5683 48.9157 90.9496C43.7255 89.7184 38.3458 89.5912 33.1061 90.5756C30.6357 90.9675 28.2554 91.8199 26.0822 93.0908C24.0357 94.3753 22.3448 96.1798 21.1719 98.331C19.9064 100.758 19.2224 103.461 19.1767 106.215C19.0995 109.903 19.9231 113.553 21.5723 116.829C23.2214 120.105 25.6432 122.903 28.6158 124.966" fill="#2F2E41"/>
<path d="M635.547 431.047H131.064C125.869 431.041 120.888 428.914 117.214 425.134C113.541 421.354 111.474 416.229 111.468 410.882V21.1643C111.474 15.8182 113.541 10.6928 117.214 6.91257C120.888 3.13235 125.869 1.006 131.064 1H635.547C640.742 1.0061 645.723 3.13249 649.396 6.9127C653.07 10.6929 655.136 15.8182 655.142 21.1643V410.882C655.136 416.228 653.07 421.354 649.396 425.134C645.723 428.914 640.742 431.041 635.547 431.047Z" fill="#081526" stroke="#77C7D9"/>
<path d="M508.578 179.937H430.703C426.855 179.937 423.164 178.364 420.443 175.564C417.721 172.763 416.192 168.965 416.192 165.005C416.192 161.045 417.721 157.247 420.443 154.446C423.164 151.646 426.855 150.073 430.703 150.073H508.578C512.427 150.073 516.118 151.646 518.839 154.446C521.56 157.247 523.089 161.045 523.089 165.005C523.089 168.965 521.56 172.763 518.839 175.564C516.118 178.364 512.427 179.937 508.578 179.937Z" fill="white"/>
<path d="M440.377 220.752H421.997C420.586 220.752 419.232 220.175 418.235 219.148C417.237 218.121 416.676 216.728 416.676 215.276C416.676 213.824 417.237 212.432 418.235 211.405C419.232 210.378 420.586 209.801 421.997 209.801H440.377C441.788 209.801 443.142 210.378 444.14 211.405C445.137 212.432 445.698 213.824 445.698 215.276C445.698 216.728 445.137 218.121 444.14 219.148C443.142 220.175 441.788 220.752 440.377 220.752Z" fill="white"/>
<path d="M516.801 220.752H498.421C497.01 220.752 495.656 220.175 494.658 219.148C493.661 218.121 493.1 216.728 493.1 215.276C493.1 213.824 493.661 212.432 494.658 211.405C495.656 210.378 497.01 209.801 498.421 209.801H516.801C518.212 209.801 519.566 210.378 520.563 211.405C521.561 212.432 522.122 213.824 522.122 215.276C522.122 216.728 521.561 218.121 520.563 219.148C519.566 220.175 518.212 220.752 516.801 220.752Z" fill="white"/>
<path d="M478.105 220.752H459.725C458.314 220.752 456.961 220.175 455.963 219.148C454.965 218.121 454.404 216.728 454.404 215.276C454.404 213.824 454.965 212.432 455.963 211.405C456.961 210.378 458.314 209.801 459.725 209.801H478.105C479.517 209.801 480.87 210.378 481.868 211.405C482.866 212.432 483.426 213.824 483.426 215.276C483.426 216.728 482.866 218.121 481.868 219.148C480.87 220.175 479.517 220.752 478.105 220.752Z" fill="white"/>
<path d="M440.377 241.657H421.997C420.586 241.657 419.232 241.08 418.235 240.053C417.237 239.026 416.676 237.634 416.676 236.182C416.676 234.73 417.237 233.337 418.235 232.31C419.232 231.283 420.586 230.707 421.997 230.707H440.377C441.788 230.707 443.142 231.283 444.14 232.31C445.137 233.337 445.698 234.73 445.698 236.182C445.698 237.634 445.137 239.026 444.14 240.053C443.142 241.08 441.788 241.657 440.377 241.657Z" fill="white"/>
<path d="M516.801 241.657H498.421C497.01 241.657 495.656 241.08 494.658 240.053C493.661 239.026 493.1 237.634 493.1 236.182C493.1 234.73 493.661 233.337 494.658 232.31C495.656 231.283 497.01 230.707 498.421 230.707H516.801C518.212 230.707 519.566 231.283 520.563 232.31C521.561 233.337 522.122 234.73 522.122 236.182C522.122 237.634 521.561 239.026 520.563 240.053C519.566 241.08 518.212 241.657 516.801 241.657Z" fill="white"/>
<path d="M478.105 241.657H459.725C458.314 241.657 456.961 241.08 455.963 240.053C454.965 239.026 454.404 237.634 454.404 236.182C454.404 234.73 454.965 233.337 455.963 232.31C456.961 231.283 458.314 230.707 459.725 230.707H478.105C479.517 230.707 480.87 231.283 481.868 232.31C482.866 233.337 483.426 234.73 483.426 236.182C483.426 237.634 482.866 239.026 481.868 240.053C480.87 241.08 479.517 241.657 478.105 241.657Z" fill="white"/>
<path d="M440.377 262.562H421.997C420.586 262.562 419.232 261.985 418.235 260.958C417.237 259.931 416.676 258.539 416.676 257.087C416.676 255.635 417.237 254.242 418.235 253.215C419.232 252.188 420.586 251.612 421.997 251.612H440.377C441.788 251.612 443.142 252.188 444.14 253.215C445.137 254.242 445.698 255.635 445.698 257.087C445.698 258.539 445.137 259.931 444.14 260.958C443.142 261.985 441.788 262.562 440.377 262.562Z" fill="white"/>
<path d="M516.801 262.562H498.421C497.01 262.562 495.656 261.985 494.658 260.958C493.661 259.931 493.1 258.539 493.1 257.087C493.1 255.635 493.661 254.242 494.658 253.215C495.656 252.188 497.01 251.612 498.421 251.612H516.801C518.212 251.612 519.566 252.188 520.563 253.215C521.561 254.242 522.122 255.635 522.122 257.087C522.122 258.539 521.561 259.931 520.563 260.958C519.566 261.985 518.212 262.562 516.801 262.562Z" fill="white"/>
<path d="M478.105 262.562H459.725C458.314 262.562 456.961 261.985 455.963 260.958C454.965 259.931 454.404 258.539 454.404 257.087C454.404 255.635 454.965 254.242 455.963 253.215C456.961 252.188 458.314 251.612 459.725 251.612H478.105C479.517 251.612 480.87 252.188 481.868 253.215C482.866 254.242 483.426 255.635 483.426 257.087C483.426 258.539 482.866 259.931 481.868 260.958C480.87 261.985 479.517 262.562 478.105 262.562Z" fill="white"/>
<path d="M440.377 283.467H421.997C420.586 283.467 419.232 282.89 418.235 281.863C417.237 280.836 416.676 279.444 416.676 277.992C416.676 276.54 417.237 275.147 418.235 274.12C419.232 273.093 420.586 272.517 421.997 272.517H440.377C441.788 272.517 443.142 273.093 444.14 274.12C445.137 275.147 445.698 276.54 445.698 277.992C445.698 279.444 445.137 280.836 444.14 281.863C443.142 282.89 441.788 283.467 440.377 283.467Z" fill="white"/>
<path d="M516.801 283.467H498.421C497.01 283.467 495.656 282.89 494.658 281.863C493.661 280.836 493.1 279.444 493.1 277.992C493.1 276.54 493.661 275.147 494.658 274.12C495.656 273.093 497.01 272.517 498.421 272.517H516.801C518.212 272.517 519.566 273.093 520.563 274.12C521.561 275.147 522.122 276.54 522.122 277.992C522.122 279.444 521.561 280.836 520.563 281.863C519.566 282.89 518.212 283.467 516.801 283.467Z" fill="white"/>
<path d="M478.105 283.467H459.725C458.314 283.467 456.961 282.89 455.963 281.863C454.965 280.836 454.404 279.444 454.404 277.992C454.404 276.54 454.965 275.147 455.963 274.12C456.961 273.093 458.314 272.517 459.725 272.517H478.105C479.517 272.517 480.87 273.093 481.868 274.12C482.866 275.147 483.426 276.54 483.426 277.992C483.426 279.444 482.866 280.836 481.868 281.863C480.87 282.89 479.517 283.467 478.105 283.467Z" fill="white"/>
<path d="M316.068 261.566C343.316 261.566 365.404 238.836 365.404 210.797C365.404 182.758 343.316 160.027 316.068 160.027C288.82 160.027 266.731 182.758 266.731 210.797C266.731 238.836 288.82 261.566 316.068 261.566Z" fill="#367DD9"/>
<path d="M316.068 273.014C312.221 273.01 308.532 271.435 305.812 268.636C303.091 265.837 301.561 262.041 301.557 258.082V163.512C301.555 161.55 301.93 159.607 302.658 157.794C303.387 155.981 304.455 154.333 305.803 152.945C307.15 151.557 308.751 150.456 310.512 149.705C312.273 148.954 314.161 148.567 316.068 148.567C317.974 148.567 319.862 148.954 321.623 149.705C323.385 150.456 324.985 151.557 326.333 152.945C327.68 154.333 328.749 155.981 329.477 157.794C330.206 159.607 330.58 161.55 330.578 163.512V258.082C330.574 262.041 329.044 265.836 326.324 268.636C323.603 271.435 319.915 273.01 316.068 273.014Z" fill="white"/>
<path d="M444.959 173.525H431.416C430.902 173.525 430.41 173.315 430.047 172.942C429.685 172.569 429.481 172.062 429.481 171.534C429.481 171.006 429.685 170.5 430.047 170.126C430.41 169.753 430.902 169.543 431.416 169.543H444.959C445.472 169.543 445.964 169.753 446.327 170.126C446.69 170.5 446.894 171.006 446.894 171.534C446.894 172.062 446.69 172.569 446.327 172.942C445.964 173.315 445.472 173.525 444.959 173.525Z" fill="#367DD9"/>
<path d="M466.242 174.023H452.698C452.185 174.023 451.693 173.813 451.33 173.44C450.967 173.066 450.763 172.56 450.763 172.032C450.763 171.504 450.967 170.998 451.33 170.624C451.693 170.251 452.185 170.041 452.698 170.041H466.242C466.755 170.041 467.247 170.251 467.61 170.624C467.973 170.998 468.176 171.504 468.176 172.032C468.176 172.56 467.973 173.066 467.61 173.44C467.247 173.813 466.755 174.023 466.242 174.023Z" fill="#367DD9"/>
<path d="M487.524 174.521H473.981C473.468 174.521 472.976 174.311 472.613 173.938C472.25 173.564 472.046 173.058 472.046 172.53C472.046 172.002 472.25 171.495 472.613 171.122C472.976 170.749 473.468 170.539 473.981 170.539H487.524C488.037 170.539 488.529 170.749 488.892 171.122C489.255 171.495 489.459 172.002 489.459 172.53C489.459 173.058 489.255 173.564 488.892 173.938C488.529 174.311 488.037 174.521 487.524 174.521Z" fill="#367DD9"/>
<path d="M508.807 175.019H495.263C494.75 175.019 494.258 174.809 493.895 174.435C493.532 174.062 493.329 173.556 493.329 173.028C493.329 172.5 493.532 171.993 493.895 171.62C494.258 171.246 494.75 171.037 495.263 171.037H508.807C509.32 171.037 509.812 171.246 510.175 171.62C510.538 171.993 510.742 172.5 510.742 173.028C510.742 173.556 510.538 174.062 510.175 174.435C509.812 174.809 509.32 175.019 508.807 175.019Z" fill="#367DD9"/>
<path d="M175.796 369.575C175.795 372.04 176.27 374.48 177.193 376.755C178.117 379.03 179.47 381.093 181.175 382.825H173.183C170.826 382.825 168.491 382.347 166.313 381.418C164.134 380.49 162.155 379.129 160.488 377.413C158.821 375.698 157.498 373.661 156.596 371.42C155.694 369.178 155.229 366.776 155.229 364.349V64.8279C155.229 62.4017 155.694 59.9993 156.596 57.7578C157.498 55.5163 158.821 53.4796 160.488 51.764C162.155 50.0485 164.134 48.6876 166.313 47.7591C168.491 46.8307 170.826 46.3528 173.183 46.3528H184.812C182.07 47.9942 179.794 50.3474 178.212 53.1773C176.629 56.0072 175.796 59.2147 175.796 62.4795L175.796 369.575Z" fill="#77C7D9"/>
<path d="M173.861 133.875C167.748 132.113 161.611 130.481 155.452 128.978C134.39 123.804 113.038 119.974 91.5174 117.51C87.8696 116.521 83.99 117.056 80.7232 118.996C77.4564 120.937 75.067 124.128 74.0751 127.873L63.3275 168.687C62.3407 172.449 62.8449 176.461 64.7294 179.841C66.6139 183.221 69.7246 185.693 73.3788 186.715L73.5239 186.745C87.7447 188.408 102.101 190.717 116.379 193.664C117.656 193.923 118.924 194.191 120.2 194.47C124.776 195.446 129.339 196.488 133.889 197.596C135.882 198.074 137.865 198.572 139.858 199.079C145.217 200.453 150.58 201.916 155.946 203.469C161.914 205.201 167.886 207.05 173.861 209.014C174.51 209.213 175.158 209.422 175.796 209.641V134.443C175.158 134.244 174.51 134.055 173.861 133.875Z" fill="white"/>
<path d="M173.861 133.875C167.748 132.113 161.611 130.481 155.452 128.978C134.39 123.804 113.038 119.974 91.5174 117.51C87.8696 116.521 83.99 117.056 80.7232 118.996C77.4564 120.937 75.067 124.128 74.0751 127.873L63.3275 168.687C62.3407 172.449 62.8449 176.461 64.7294 179.841C66.6139 183.221 69.7246 185.693 73.3788 186.715L73.5239 186.745C87.7447 188.408 102.101 190.717 116.379 193.664C117.656 193.923 118.924 194.191 120.2 194.47C124.776 195.446 129.339 196.488 133.889 197.596C135.882 198.074 137.865 198.572 139.858 199.079C145.217 200.453 150.58 201.916 155.946 203.469C161.914 205.201 167.886 207.05 173.861 209.014C174.51 209.213 175.158 209.422 175.796 209.641V207.541C175.148 207.332 174.5 207.123 173.861 206.914C168.367 205.112 162.879 203.416 157.397 201.827C155.346 201.219 153.295 200.632 151.244 200.065C147.549 199.039 143.863 198.057 140.187 197.118C138.233 196.61 136.282 196.123 134.334 195.655C134.189 195.615 134.034 195.585 133.889 195.545C130.571 194.739 127.246 193.969 123.915 193.236C122.638 192.957 121.361 192.678 120.084 192.409C104.683 189.124 89.1663 186.566 73.8138 184.774C70.6736 183.874 68.006 181.734 66.3918 178.82C64.7775 175.906 64.3472 172.454 65.1947 169.215L75.9422 128.39C76.8019 125.142 78.8789 122.377 81.7173 120.703C84.5557 119.029 87.9236 118.582 91.0818 119.461L91.2268 119.481C112.474 121.909 133.558 125.672 154.359 130.75C154.572 130.809 154.785 130.859 154.997 130.909C161.305 132.462 167.593 134.141 173.861 135.946C174.5 136.125 175.148 136.314 175.796 136.513V134.443C175.158 134.244 174.51 134.055 173.861 133.875Z" fill="#367DD9"/>
<path d="M175.796 135.478V208.586C175.148 208.367 174.51 208.158 173.861 207.949C168.144 206.067 162.408 204.295 156.652 202.633C151.128 201.02 145.585 199.504 140.023 198.084C138.049 197.586 136.085 197.098 134.111 196.62C134.034 196.262 133.956 195.904 133.889 195.545C133.531 193.833 133.251 192.101 133.038 190.359C132.941 189.692 132.873 189.025 132.805 188.348C131.787 177.683 133.206 166.921 136.948 156.92C140.691 146.92 146.653 137.958 154.359 130.75C154.64 130.471 154.93 130.202 155.22 129.943C161.469 131.476 167.683 133.135 173.861 134.921C174.51 135.09 175.158 135.279 175.796 135.478Z" fill="#367DD9"/>
<path d="M111.552 165.412L84.6489 162.147C83.7024 162.032 82.7432 162.11 81.8261 162.376C80.9089 162.643 80.0517 163.092 79.3034 163.7C78.5551 164.307 77.9304 165.06 77.465 165.916C76.9995 166.772 76.7024 167.713 76.5906 168.687C76.4788 169.661 76.5546 170.648 76.8135 171.592C77.0724 172.536 77.5094 173.418 78.0996 174.188C78.6898 174.958 79.4216 175.601 80.2533 176.08C81.0849 176.559 82.0001 176.865 82.9465 176.98L109.849 180.245C111.758 180.472 113.677 179.911 115.184 178.684C116.692 177.458 117.665 175.666 117.89 173.702C118.116 171.739 117.575 169.763 116.387 168.209C115.199 166.655 113.46 165.649 111.552 165.412ZM115.983 173.476C115.814 174.916 115.097 176.23 113.989 177.127C112.881 178.025 111.472 178.434 110.072 178.264L83.1685 174.999C81.7715 174.824 80.4988 174.086 79.6292 172.947C78.7596 171.809 78.3641 170.362 78.5292 168.924C78.6943 167.485 79.4066 166.173 80.5101 165.274C81.6135 164.375 83.0182 163.963 84.4164 164.128L111.32 167.393C112.72 167.568 113.996 168.305 114.87 169.445C115.744 170.584 116.144 172.033 115.983 173.476Z" fill="#367DD9"/>
<path d="M175.796 152.6V187.273C175.175 187.657 174.528 187.996 173.861 188.288C170.389 189.883 166.539 190.4 162.786 189.774C159.032 189.148 155.538 187.406 152.734 184.764C152.463 184.515 152.192 184.247 151.931 183.968C151.669 183.699 151.418 183.41 151.176 183.122C148.256 179.67 146.568 175.296 146.392 170.723C146.215 166.15 147.561 161.652 150.207 157.973C152.852 154.294 156.639 151.655 160.94 150.492C165.241 149.328 169.8 149.71 173.861 151.575C174.524 151.881 175.169 152.223 175.796 152.6Z" fill="white"/>
<path d="M173.861 177.696C166.248 179.329 158.687 181.137 151.176 183.122C148.371 183.858 145.575 184.621 142.789 185.411C139.461 186.357 136.133 187.336 132.805 188.348C128.559 189.642 124.318 190.996 120.084 192.409C118.856 192.827 117.618 193.246 116.379 193.664C104.606 197.705 92.9104 202.185 81.408 207.073C77.7476 208.014 74.5969 210.406 72.6419 213.726C70.6869 217.047 70.0859 221.028 70.9698 224.802L80.673 265.896C81.571 269.68 83.8913 272.944 87.1248 274.971C90.3583 276.998 94.241 277.622 97.9212 276.706L98.0567 276.657C116.972 268.673 136.331 261.852 156.033 256.23C161.914 254.547 167.857 252.961 173.861 251.471C174.51 251.312 175.148 251.153 175.796 251.003V177.288C175.148 177.408 174.51 177.547 173.861 177.696Z" fill="white"/>
<path d="M173.861 177.696C166.248 179.329 158.687 181.137 151.176 183.122C148.371 183.858 145.575 184.621 142.789 185.411C139.461 186.357 136.133 187.336 132.805 188.348C128.559 189.642 124.318 190.996 120.084 192.409C118.856 192.827 117.618 193.246 116.379 193.664C104.606 197.705 92.9104 202.185 81.408 207.073C77.7476 208.014 74.5969 210.406 72.6419 213.726C70.6869 217.047 70.0859 221.028 70.9698 224.802L80.673 265.896C81.571 269.68 83.8913 272.944 87.1248 274.971C90.3583 276.998 94.241 277.622 97.9212 276.706L98.0567 276.657C116.972 268.673 136.331 261.852 156.033 256.23C161.914 254.547 167.857 252.961 173.861 251.471C174.51 251.312 175.148 251.153 175.796 251.003V248.953C175.148 249.112 174.51 249.271 173.861 249.43C173.378 249.55 172.884 249.669 172.401 249.789C166.713 251.212 161.086 252.719 155.52 254.308C155.375 254.348 155.22 254.398 155.075 254.438C135.473 260.047 116.211 266.845 97.3893 274.795C94.2153 275.561 90.876 275.006 88.0972 273.252C85.3184 271.498 83.3247 268.686 82.5496 265.428L72.8564 224.334C72.0871 221.062 72.6104 217.61 74.3114 214.734C76.0125 211.858 78.7524 209.794 81.9304 208.994L82.0754 208.944C94.6033 203.608 107.353 198.77 120.2 194.47C121.438 194.052 122.677 193.644 123.915 193.236C126.953 192.25 129.994 191.291 133.038 190.359C136.249 189.373 139.458 188.424 142.663 187.512C142.876 187.452 143.089 187.392 143.302 187.332C146.436 186.446 149.58 185.59 152.734 184.764C159.728 182.932 166.77 181.25 173.861 179.717C174.5 179.578 175.148 179.438 175.796 179.309V177.288C175.148 177.408 174.51 177.547 173.861 177.696Z" fill="#367DD9"/>
<path d="M175.796 178.294V249.978C175.158 250.127 174.51 250.277 173.861 250.436C167.806 251.949 161.776 253.562 155.771 255.274C155.529 254.995 155.297 254.717 155.075 254.438C148.806 246.887 144.2 238.03 141.574 228.474C138.947 218.918 138.361 208.89 139.857 199.079C139.906 198.751 139.964 198.412 140.022 198.084C140.07 197.765 140.129 197.437 140.187 197.118C140.784 193.858 141.611 190.648 142.663 187.512C142.789 187.134 142.915 186.755 143.05 186.377C146 185.541 148.961 184.738 151.93 183.968C159.196 182.037 166.506 180.281 173.861 178.702C174.5 178.553 175.148 178.423 175.796 178.294Z" fill="#367DD9"/>
<path d="M130.842 243.229C130.116 241.395 128.714 239.933 126.942 239.162C125.17 238.391 123.174 238.375 121.39 239.117L96.2864 249.59C94.5061 250.336 93.0866 251.779 92.3394 253.602C91.5923 255.425 91.5786 257.478 92.3014 259.311C93.0243 261.144 94.4245 262.607 96.1946 263.379C97.9647 264.151 99.9601 264.168 101.743 263.427L126.847 252.954C128.627 252.206 130.047 250.763 130.795 248.94C131.544 247.118 131.561 245.064 130.842 243.229ZM126.121 251.103L101.017 261.585C99.709 262.129 98.2445 262.117 96.9453 261.551C95.646 260.985 94.6182 259.911 94.0876 258.566C93.5569 257.221 93.5669 255.714 94.1152 254.376C94.6635 253.038 95.7053 251.979 97.0119 251.431L122.116 240.959C123.423 240.412 124.888 240.423 126.188 240.987C127.488 241.552 128.516 242.625 129.047 243.97C129.578 245.315 129.568 246.822 129.02 248.16C128.471 249.498 127.428 250.556 126.121 251.103Z" fill="#367DD9"/>
<path d="M175.796 196.6V235.633C175.158 235.8 174.512 235.933 173.861 236.031C169.977 236.591 166.02 235.936 162.502 234.151C158.985 232.366 156.071 229.534 154.139 226.022C152.206 222.51 151.346 218.481 151.668 214.459C151.99 210.437 153.481 206.608 155.946 203.469C156.168 203.18 156.4 202.902 156.652 202.633C156.884 202.354 157.135 202.085 157.397 201.827C159.536 199.65 162.134 198.01 164.99 197.036C167.846 196.062 170.882 195.78 173.861 196.212C174.513 196.302 175.159 196.432 175.796 196.6Z" fill="white"/>
<path d="M173.861 128.689V228.048C174.51 227.829 175.158 227.62 175.796 227.42V129.595C175.148 129.286 174.51 128.988 173.861 128.689ZM173.861 128.689V228.048C174.51 227.829 175.158 227.62 175.796 227.42V129.595C175.148 129.286 174.51 128.988 173.861 128.689ZM173.861 128.689V228.048C174.51 227.829 175.158 227.62 175.796 227.42V129.595C175.148 129.286 174.51 128.988 173.861 128.689ZM173.861 135.946V250.436C174.51 250.277 175.158 250.127 175.796 249.978V136.513C175.148 136.314 174.5 136.125 173.861 135.946ZM173.861 135.946V250.436C174.51 250.277 175.158 250.127 175.796 249.978V136.513C175.148 136.314 174.5 136.125 173.861 135.946ZM173.861 135.946V250.436C174.51 250.277 175.158 250.127 175.796 249.978V136.513C175.148 136.314 174.5 136.125 173.861 135.946ZM173.861 135.946V250.436C174.51 250.277 175.158 250.127 175.796 249.978V136.513C175.148 136.314 174.5 136.125 173.861 135.946ZM173.861 135.946V251.471C174.51 251.312 175.148 251.153 175.796 251.003V136.513C175.148 136.314 174.5 136.125 173.861 135.946ZM595.885 41.8135H193.944C188.621 41.8226 183.518 44.0028 179.753 47.8765C175.989 51.7502 173.87 57.0014 173.861 62.4796V369.575C173.87 375.052 175.989 380.302 179.754 384.174C183.519 388.046 188.622 390.224 193.944 390.231H595.885C601.207 390.224 606.309 388.046 610.072 384.174C613.835 380.301 615.952 375.051 615.958 369.575V62.4796C615.954 57.0017 613.838 51.7494 610.075 47.875C606.312 44.0006 601.208 41.8207 595.885 41.8135ZM614.024 369.575C614.019 374.524 612.106 379.268 608.706 382.767C605.305 386.267 600.694 388.235 595.885 388.24H193.944C189.134 388.235 184.522 386.268 181.12 382.769C177.718 379.27 175.803 374.525 175.796 369.575V62.4796C175.803 57.5289 177.718 52.7831 181.12 49.2825C184.522 45.7818 189.133 43.8119 193.944 43.8045H595.885C600.696 43.8102 605.308 45.7798 608.708 49.2812C612.109 52.7825 614.021 57.5293 614.024 62.4796V369.575ZM173.861 135.946V249.431C174.51 249.271 175.148 249.112 175.796 248.953V136.513C175.148 136.314 174.5 136.125 173.861 135.946ZM173.861 135.946V250.436C174.51 250.277 175.158 250.127 175.796 249.978V136.513C175.148 136.314 174.5 136.125 173.861 135.946ZM173.861 135.946V250.436C174.51 250.277 175.158 250.127 175.796 249.978V136.513C175.148 136.314 174.5 136.125 173.861 135.946ZM173.861 135.946V250.436C174.51 250.277 175.158 250.127 175.796 249.978V136.513C175.148 136.314 174.5 136.125 173.861 135.946ZM173.861 128.689V228.048C174.51 227.829 175.158 227.62 175.796 227.42V129.595C175.148 129.286 174.51 128.988 173.861 128.689ZM173.861 128.689V228.048C174.51 227.829 175.158 227.62 175.796 227.42V129.595C175.148 129.286 174.51 128.988 173.861 128.689Z" fill="#081526"/>
<path d="M173.861 135.946V250.436C174.51 250.277 175.158 250.127 175.796 249.978V136.513M173.861 135.946C174.5 136.125 175.148 136.314 175.796 136.513M173.861 135.946V251.471C174.51 251.312 175.148 251.153 175.796 251.003V136.513M173.861 135.946V249.431C174.51 249.271 175.148 249.112 175.796 248.953V136.513M173.861 128.689V228.048C174.51 227.829 175.158 227.62 175.796 227.42V129.595C175.148 129.286 174.51 128.988 173.861 128.689ZM595.885 41.8135H193.944C188.621 41.8226 183.518 44.0028 179.753 47.8765C175.989 51.7502 173.87 57.0014 173.861 62.4796V369.575C173.87 375.052 175.989 380.302 179.754 384.174C183.519 388.046 188.622 390.224 193.944 390.231H595.885C601.207 390.224 606.309 388.046 610.072 384.174C613.835 380.301 615.952 375.051 615.958 369.575V62.4796C615.954 57.0017 613.838 51.7494 610.075 47.875C606.312 44.0006 601.208 41.8207 595.885 41.8135ZM614.024 369.575C614.019 374.524 612.106 379.268 608.706 382.767C605.305 386.267 600.694 388.235 595.885 388.24H193.944C189.134 388.235 184.522 386.268 181.12 382.769C177.718 379.27 175.803 374.525 175.796 369.575V62.4796C175.803 57.5289 177.718 52.7831 181.12 49.2825C184.522 45.7818 189.133 43.8119 193.944 43.8045H595.885C600.696 43.8102 605.308 45.7798 608.708 49.2812C612.109 52.7825 614.021 57.5293 614.024 62.4796V369.575Z" stroke="#77C7D9"/>
<path d="M87.692 233.816C87.3128 232.906 86.7444 232.093 86.0266 231.434C85.3089 230.774 84.4595 230.285 83.5381 230C82.6166 229.715 81.6457 229.641 80.6936 229.784C79.7415 229.927 78.8315 230.283 78.0275 230.827L59.4819 216.163L58.6056 228.637L76.3512 240.649C77.3287 241.979 78.7462 242.893 80.3348 243.218C81.9235 243.544 83.5731 243.259 84.971 242.416C86.369 241.574 87.4181 240.234 87.9196 238.648C88.4211 237.063 88.3401 235.344 87.692 233.816Z" fill="#FFB6B6"/>
<path d="M12.9602 145.321L6.85764 142.353C6.85764 142.353 -2.9735 145.199 1.80276 158.576L30.7076 213.988L65.9969 235.249L76.9982 225.217L41.6835 196.464L12.9602 145.321Z" fill="#367DD9"/>
</g>
<defs>
<clipPath id="clip0_28_425">
<rect width="750" height="432" fill="white"/>
</clipPath>
</defs>
</svg>
