<!DOCTYPE svg PUBLIC "-//W3C//DTD SVG 1.1//EN" "http://www.w3.org/Graphics/SVG/1.1/DTD/svg11.dtd">
<!-- Uploaded to: SVG Repo, www.svgrepo.com, Transformed by: SVG Repo Mixer Tools -->
<svg version="1.1" id="Layer_1" xmlns="http://www.w3.org/2000/svg" xmlns:xlink="http://www.w3.org/1999/xlink" viewBox="0 0 512 512" xml:space="preserve" width="800px" height="800px" fill="#000000">
<g id="SVGRepo_bgCarrier" stroke-width="0"/>
<g id="SVGRepo_tracerCarrier" stroke-linecap="round" stroke-linejoin="round"/>
<g id="SVGRepo_iconCarrier"> <g> <path style="fill:#169B62;" d="M176.271,295.845c0-25.103-9.088-38.527-16.39-49.314c-6.146-9.08-10.588-15.64-10.588-30.391 c0-14.749,4.44-21.309,10.587-30.388c7.303-10.788,16.391-24.213,16.391-49.314s-9.088-38.527-16.39-49.315 c-6.146-9.079-10.588-15.639-10.588-30.389s4.44-21.312,10.587-30.39c1.831-2.7,2.902-5.956,2.902-9.464 C162.782,7.557,155.225,0,145.903,0c-5.837,0-10.98,2.963-14.011,7.466c-7.296,10.78-16.357,24.201-16.357,49.267 c0,25.102,9.088,38.526,16.39,49.313c6.146,9.08,10.588,15.64,10.588,30.391c0,14.749-4.44,21.31-10.588,30.389 c-7.302,10.788-16.39,24.213-16.39,49.313c0,25.103,9.088,38.527,16.39,49.314c6.146,9.08,10.588,15.64,10.588,30.391 c0,14.751-4.44,21.312-10.588,30.393c-7.302,10.788-16.39,24.214-16.39,49.316c0,25.103,9.088,38.528,16.39,49.316 c6.146,9.08,10.588,15.641,10.588,30.395c0,14.75-4.438,21.31-10.582,30.387c-1.833,2.701-2.907,5.958-2.907,9.468 c0,9.322,7.557,16.879,16.879,16.879c5.837,0,10.982-2.964,14.012-7.467c7.296-10.778,16.356-24.2,16.356-49.267 c0-25.104-9.088-38.529-16.39-49.317c-6.146-9.08-10.588-15.641-10.588-30.394c0-14.752,4.441-21.313,10.588-30.394 C167.183,334.373,176.271,320.948,176.271,295.845z"/> <path style="fill:#169B62;" d="M369.487,216.139c0-14.749,4.44-21.309,10.587-30.388c7.303-10.788,16.391-24.213,16.391-49.314 s-9.088-38.527-16.39-49.315c-6.146-9.079-10.588-15.639-10.588-30.389s4.44-21.312,10.587-30.39 c1.831-2.7,2.902-5.956,2.902-9.464C382.976,7.557,375.419,0,366.097,0c-5.837,0-10.98,2.963-14.011,7.466 c-7.296,10.78-16.357,24.201-16.357,49.267c0,25.102,9.088,38.526,16.39,49.313c6.146,9.08,10.588,15.64,10.588,30.391 c0,14.749-4.44,21.31-10.588,30.389c-7.302,10.788-16.39,24.213-16.39,49.313c0,25.103,9.088,38.527,16.39,49.314 c6.146,9.08,10.588,15.64,10.588,30.391c0,14.751-4.44,21.312-10.587,30.391c-1.831,2.7-2.902,5.955-2.902,9.462 c0,9.322,7.557,16.879,16.879,16.879c5.839,0,10.984-2.965,14.014-7.472c7.296-10.779,16.354-24.2,16.354-49.261 c0-25.103-9.088-38.527-16.39-49.314C373.928,237.451,369.487,230.891,369.487,216.139z"/> </g> <rect x="239.124" y="116.869" transform="matrix(-0.7071 -0.7071 0.7071 -0.7071 330.5157 438.1574)" style="fill:#10744A;" width="33.758" height="67.516"/> <rect x="239.122" y="222.242" transform="matrix(-0.7071 0.7071 -0.7071 -0.7071 618.0397 255.9996)" style="fill:#FF883E;" width="33.758" height="67.516"/> <rect x="239.118" y="327.609" transform="matrix(-0.7071 -0.7071 0.7071 -0.7071 181.4891 797.9085)" style="fill:#10744A;" width="33.758" height="67.516"/> <path style="fill:#FFCD71;" d="M490.172,87.123c-6.146-9.08-10.588-15.64-10.588-30.39s4.44-21.312,10.587-30.39 c1.831-2.7,2.902-5.956,2.902-9.464C493.073,7.557,485.516,0,476.194,0c-5.837,0-10.98,2.963-14.011,7.466 c-7.296,10.78-16.357,24.201-16.357,49.267c0,25.102,9.088,38.526,16.39,49.313c6.146,9.08,10.588,15.64,10.588,30.391 c0,14.749-4.44,21.31-10.587,30.388c-1.831,2.7-2.902,5.956-2.902,9.462c0,9.322,7.557,16.879,16.879,16.879 c5.838,0,10.983-2.965,14.014-7.471c7.296-10.778,16.354-24.199,16.354-49.259C506.562,111.336,497.474,97.91,490.172,87.123z"/> <rect x="459.31" y="231.689" transform="matrix(-0.7071 -0.7071 0.7071 -0.7071 625.2059 789.8632)" style="fill:#FF6638;" width="33.758" height="67.516"/> <rect x="459.313" y="337.062" transform="matrix(-0.7071 0.7071 -0.7071 -0.7071 1075.1196 296.3106)" style="fill:#0B4E31;" width="33.758" height="67.516"/> <rect x="459.315" y="442.426" transform="matrix(-0.7071 -0.7071 0.7071 -0.7071 476.2009 1149.6165)" style="fill:#FF6638;" width="33.758" height="67.516"/> <path style="fill:#FFE1AA;" d="M49.783,405.956c-6.146-9.08-10.588-15.64-10.588-30.39s4.44-21.312,10.587-30.39 c1.831-2.7,2.902-5.956,2.902-9.464c0-9.322-7.557-16.879-16.879-16.879c-5.837,0-10.98,2.963-14.011,7.466 c-7.296,10.78-16.357,24.201-16.357,49.267c0,25.102,9.088,38.526,16.39,49.313c6.146,9.08,10.588,15.64,10.588,30.391 c0,14.749-4.44,21.31-10.587,30.388c-1.831,2.7-2.902,5.956-2.902,9.462c0,9.322,7.557,16.879,16.879,16.879 c5.838,0,10.983-2.965,14.014-7.471c7.296-10.778,16.354-24.199,16.354-49.259C66.174,430.168,57.086,416.743,49.783,405.956z"/> <rect x="18.927" y="2.048" transform="matrix(-0.7071 -0.7071 0.7071 -0.7071 35.8064 86.4437)" style="fill:#FF883E;" width="33.758" height="67.516"/> <rect x="18.93" y="107.422" transform="matrix(-0.7071 0.7071 -0.7071 -0.7071 160.9597 215.6887)" style="fill:#10744A;" width="33.758" height="67.516"/> <rect x="18.932" y="212.788" transform="matrix(-0.7071 -0.7071 0.7071 -0.7071 -113.201 446.2027)" style="fill:#FF883E;" width="33.758" height="67.516"/> </g>
</svg>