<svg width="800" height="800" viewBox="0 0 800 800" fill="none" xmlns="http://www.w3.org/2000/svg">
<path d="M137.5 287.5V350H162.5V300H387.5V350H412.5V300H637.5V350H662.5V287.5C662.5 285.858 662.177 284.233 661.549 282.716C660.921 281.199 660.001 279.821 658.84 278.66C657.679 277.499 656.301 276.579 654.784 275.951C653.267 275.323 651.642 275 650 275H412.5V237.5H387.5V275H150C148.358 275 146.733 275.323 145.216 275.951C143.699 276.579 142.321 277.499 141.16 278.66C139.999 279.821 139.079 281.199 138.451 282.716C137.823 284.233 137.5 285.858 137.5 287.5Z" fill="#367DD9"/>
<path d="M400 512.5C434.518 512.5 462.5 484.518 462.5 450C462.5 415.482 434.518 387.5 400 387.5C365.482 387.5 337.5 415.482 337.5 450C337.5 484.518 365.482 512.5 400 512.5Z" fill="#367DD9"/>
<path d="M650 512.5C684.518 512.5 712.5 484.518 712.5 450C712.5 415.482 684.518 387.5 650 387.5C615.482 387.5 587.5 415.482 587.5 450C587.5 484.518 615.482 512.5 650 512.5Z" fill="#367DD9"/>
<path d="M150 512.5C184.518 512.5 212.5 484.518 212.5 450C212.5 415.482 184.518 387.5 150 387.5C115.482 387.5 87.5 415.482 87.5 450C87.5 484.518 115.482 512.5 150 512.5Z" fill="#367DD9"/>
<path d="M125 675H25V775H125V675Z" fill="#367DD9"/>
<path d="M275 675H175V775H275V675Z" fill="#367DD9"/>
<path d="M625 675H525V775H625V675Z" fill="#367DD9"/>
<path d="M775 675H675V775H775V675Z" fill="#367DD9"/>
<path d="M450 675H350V775H450V675Z" fill="#367DD9"/>
<path d="M412.5 550H387.5V650H412.5V550Z" fill="#367DD9"/>
<path d="M87.5 625H212.5V650H237.5V612.5C237.5 610.858 237.177 609.233 236.549 607.716C235.921 606.199 235.001 604.821 233.84 603.66C232.679 602.499 231.301 601.579 229.784 600.951C228.267 600.323 226.642 600 225 600H162.5V550H137.5V600H75C73.3584 600 71.7327 600.323 70.216 600.951C68.6992 601.579 67.321 602.499 66.1602 603.66C64.9994 604.821 64.0787 606.199 63.4506 607.716C62.8226 609.233 62.4996 610.858 62.5 612.5V650H87.5V625Z" fill="#367DD9"/>
<path d="M737.5 650V612.5C737.5 610.858 737.177 609.233 736.549 607.716C735.921 606.199 735.001 604.821 733.84 603.66C732.679 602.499 731.301 601.579 729.784 600.951C728.267 600.323 726.642 600 725 600H662.5V550H637.5V600H575C573.358 600 571.733 600.323 570.216 600.951C568.699 601.579 567.321 602.499 566.16 603.66C564.999 604.821 564.079 606.199 563.451 607.716C562.823 609.233 562.5 610.858 562.5 612.5V650H587.5V625H712.5V650H737.5Z" fill="#367DD9"/>
<path d="M423.612 101.388L400 25L376.388 101.388H300L361.8 148.612L338.2 225L400 177.787L461.8 225L438.2 148.612L500 101.388H423.612Z" fill="#367DD9"/>
</svg>
