<svg width="518" height="458" viewBox="0 0 518 458" fill="none" xmlns="http://www.w3.org/2000/svg">
<path d="M342.472 143.901H340.534V99.7979C340.534 96.4459 339.739 93.1266 338.195 90.0297C336.651 86.9328 334.387 84.1188 331.533 81.7485C328.68 79.3783 325.292 77.498 321.564 76.2153C317.836 74.9325 313.84 74.2722 309.804 74.2722H197.315C189.165 74.2722 181.348 76.9615 175.585 81.7485C169.822 86.5355 166.585 93.028 166.585 99.7979V341.751C166.585 345.103 167.38 348.423 168.924 351.52C170.468 354.616 172.732 357.43 175.585 359.801C178.439 362.171 181.827 364.051 185.555 365.334C189.283 366.617 193.279 367.277 197.315 367.277H309.804C317.954 367.277 325.77 364.588 331.533 359.801C337.296 355.014 340.534 348.521 340.534 341.751V175.294H342.472V143.901Z" fill="#367DD9"/>
<path d="M305.656 89.5216H292.381C292.991 90.8034 293.224 92.194 293.059 93.5711C292.895 94.9481 292.337 96.2693 291.435 97.4182C290.533 98.5671 289.316 99.5085 287.889 100.159C286.463 100.81 284.871 101.151 283.255 101.151H224.993C223.377 101.151 221.785 100.81 220.359 100.159C218.932 99.5085 217.714 98.5671 216.813 97.4182C215.911 96.2693 215.353 94.9481 215.188 93.5711C215.023 92.194 215.256 90.8034 215.867 89.5216H203.468C200.743 89.5216 198.045 89.9812 195.528 90.8741C193.011 91.767 190.724 93.0757 188.797 94.7256C186.871 96.3755 185.343 98.3342 184.3 100.49C183.257 102.646 182.721 104.956 182.721 107.289V332.479C182.721 334.812 183.257 337.122 184.3 339.278C185.343 341.434 186.871 343.392 188.797 345.042C190.724 346.692 193.011 348.001 195.528 348.894C198.045 349.787 200.743 350.246 203.468 350.246H305.656C308.38 350.246 311.078 349.787 313.596 348.894C316.113 348.001 318.4 346.692 320.326 345.042C322.253 343.392 323.781 341.434 324.824 339.278C325.867 337.122 326.403 334.812 326.403 332.479V107.289C326.403 104.956 325.867 102.646 324.824 100.49C323.781 98.3342 322.253 96.3755 320.326 94.7256C318.4 93.0757 316.113 91.767 313.596 90.8741C311.078 89.9812 308.38 89.5216 305.656 89.5216Z" fill="white"/>
<path d="M517.558 9.53137C517.84 7.64279 517.377 5.72226 516.256 4.13368C515.134 2.5451 513.433 1.39885 511.473 0.91214C509.514 0.425426 507.433 0.632059 505.625 1.49289C503.816 2.35372 502.406 3.80895 501.662 5.5828L484.195 24.4288L489.32 37.9006L506.886 15.8797C508.033 16.2253 509.245 16.3301 510.439 16.1869C511.633 16.0436 512.779 15.6556 513.797 15.0504C514.814 14.4451 515.678 13.6372 516.328 12.6837C516.978 11.7302 517.398 10.6541 517.558 9.53137Z" fill="#FFB7B7"/>
<path d="M445.709 83.8377L502.775 24.9101L495.078 13.0696L423.502 71.6394L445.709 83.8377Z" fill="#367DD9"/>
<path d="M433.411 47.833C444.356 47.833 453.229 39.2172 453.229 28.5891C453.229 17.9609 444.356 9.34509 433.411 9.34509C422.466 9.34509 413.593 17.9609 413.593 28.5891C413.593 39.2172 422.466 47.833 433.411 47.833Z" fill="#2F2E41"/>
<path d="M434.65 17.9754C438.954 13.7931 444.163 10.5657 449.91 8.52039C453.599 7.211 457.614 6.402 461.471 7.14562C465.327 7.8892 468.974 10.4455 470.05 14.071C470.93 17.0356 470.022 20.2275 468.656 23.0182C467.291 25.809 465.468 28.3968 464.364 31.2917C463.237 34.2454 462.899 37.422 463.378 40.5331C463.858 43.6442 465.141 46.5912 467.111 49.1066C469.081 51.622 471.676 53.6262 474.659 54.9372C477.642 56.2482 480.92 56.8246 484.195 56.6139C480.406 57.1007 476.913 58.8069 473.209 59.715C469.505 60.6232 465.134 60.5616 462.381 58.0192C459.469 55.3293 459.411 50.9558 459.552 47.0824C459.761 41.3245 459.97 35.5666 460.18 29.8087C460.286 26.8722 460.378 23.8417 459.272 21.101C458.167 18.3602 455.54 15.9603 452.474 15.9852C450.15 16.0041 448.093 17.3531 446.229 18.6834C444.365 20.0138 442.392 21.4331 440.077 21.631C437.762 21.8289 435.119 20.1874 435.292 17.9668L434.65 17.9754Z" fill="#2F2E41"/>
<path d="M356.98 159.287C355.068 159.799 353.028 159.617 351.246 158.774C349.464 157.932 348.064 156.487 347.312 154.714C346.559 152.94 346.506 150.962 347.162 149.154C347.819 147.345 349.139 145.832 350.874 144.901L368.076 126.05L382.627 129.087L362.162 148.448C362.665 149.477 362.928 150.6 362.933 151.739C362.938 152.877 362.685 154.002 362.191 155.036C361.697 156.069 360.974 156.985 360.074 157.72C359.173 158.454 358.117 158.989 356.98 159.287Z" fill="#FFB7B7"/>
<path d="M413.593 91.2164L370.875 143.432L357.854 137.61L408.064 61.49L413.593 91.2164Z" fill="#367DD9"/>
<path d="M378.911 250.359L369.001 250.205L370.193 283.727H378.909L378.911 250.359Z" fill="#FFB7B7"/>
<path d="M381.388 281.244L363.988 281.244H363.988C361.047 281.244 358.227 282.384 356.147 284.413C354.068 286.443 352.899 289.195 352.899 292.065V292.416L381.387 292.417L381.388 281.244Z" fill="#367DD9"/>
<path d="M447.452 241.514L435.888 248.312L459.019 273.794L466.854 269.188L447.452 241.514Z" fill="#FFB7B7"/>
<path d="M466.842 266.345L452.151 275.672L452.15 275.673C449.668 277.249 447.92 279.737 447.291 282.587C446.663 285.438 447.205 288.42 448.799 290.875L448.995 291.176L473.048 275.904L466.842 266.345Z" fill="#367DD9"/>
<path d="M451.651 137.303C451.651 137.303 426.793 56.415 418.804 55.3219C410.815 54.2288 397.944 76.077 397.944 76.077C381.255 96.938 364.047 164.512 364.047 164.512C364.047 164.512 392.734 166.27 413.704 177.201C434.675 188.132 459.423 176.648 459.423 176.648L451.651 137.303Z" fill="#367DD9"/>
<path opacity="0.1" d="M451.651 137.303C451.651 137.303 426.793 56.4146 418.804 55.3215C410.815 54.2284 401.213 76.2984 401.213 76.2984C392.897 109.973 364.047 164.511 364.047 164.511C364.047 164.511 392.734 166.27 413.704 177.201C434.675 188.132 459.423 176.648 459.423 176.648L451.651 137.303Z" fill="#367DD9"/>
<path d="M431.035 113.018V153.319L435.976 211.698L460.661 255.858L448.879 263.936L415.218 221.931L401.904 180.222L380.995 272.553L365.286 271.476L376.195 143.46L396.898 107.427L431.035 113.018Z" fill="#367DD9"/>
<path d="M405.911 73.8412C397.956 81.4831 405.343 89.6709 405.343 89.6709L396.252 109.322L432.049 118.601L444.559 64.9011L436.036 56.1675C418.989 55.6216 418.98 55.2822 418.98 55.2822C415.993 58.09 405.911 73.8412 405.911 73.8412Z" fill="white"/>
<path d="M445.707 59.3569C444.121 58.2181 442.317 57.3967 440.402 56.9403C438.486 56.484 436.497 56.4016 434.548 56.6982C432.6 56.9947 430.731 57.6642 429.051 58.6679C427.371 59.6716 425.912 60.9894 424.759 62.5452C415.976 74.4356 407.855 93.6357 419.044 117.582C437.011 156.031 452.645 175.714 459.001 175.712C459.278 175.714 459.554 175.672 459.818 175.587C463.73 174.297 469.387 167.86 470.411 162.187C470.777 160.157 470.69 157.329 468.193 155.387C461.02 149.808 448.142 132.438 444.125 109.575C441.905 96.9416 446.211 85.434 450.213 78.0051C451.904 74.9313 452.398 71.3679 451.606 67.9683C450.814 64.5686 448.788 61.5604 445.9 59.4952L445.707 59.3569Z" fill="#367DD9"/>
<path d="M434.229 46.2847C441.401 42.4887 444.037 33.7819 440.116 26.8376C436.196 19.8934 427.203 17.3413 420.032 21.1373C412.86 24.9334 410.224 33.6402 414.144 40.5845C418.065 47.5287 427.057 50.0808 434.229 46.2847Z" fill="#FFB7B7"/>
<path d="M406.161 32.9344H427.368L427.586 29.8906L428.673 32.9344H431.938L432.369 26.9017L434.524 32.9344H440.843V32.6355C440.838 28.4356 439.167 24.4091 436.196 21.4393C433.226 18.4696 429.198 16.7991 424.997 16.7943H422.007C417.806 16.799 413.778 18.4695 410.807 21.4393C407.837 24.4091 406.166 28.4356 406.161 32.6355V32.9344Z" fill="#2F2E41"/>
<path d="M437.855 42.7076L447.036 39.9459V19.2775H429.695L430.124 19.6748C436.098 25.2052 442.741 44.8263 437.855 42.7076Z" fill="#2F2E41"/>
<g clip-path="url(#clip0_12_299)">
<path d="M143.176 271.012C143.176 271.012 137.704 297.173 144.392 297.173C151.081 297.173 166.89 267.57 166.89 267.57L161.418 259.997L151.595 275.437L151.081 267.57L143.176 271.012Z" fill="#A0616A"/>
<path d="M177.048 267.988C179.989 267.988 182.372 265.29 182.372 261.961C182.372 258.632 179.989 255.933 177.048 255.933C174.108 255.933 171.725 258.632 171.725 261.961C171.725 265.29 174.108 267.988 177.048 267.988Z" fill="#A0616A"/>
<path d="M138.536 449.189L145.622 449.189L148.994 418.241L138.535 418.241L138.536 449.189Z" fill="#A0616A"/>
<path d="M138.287 457.559L160.078 457.558V457.246C160.078 454.699 159.185 452.257 157.594 450.456C156.003 448.655 153.846 447.643 151.597 447.643H151.596L147.615 444.224L140.189 447.644L138.286 447.644L138.287 457.559Z" fill="#367DD9"/>
<path d="M62.3096 439.179L68.6502 442.762L83.8729 416.775L74.5145 411.488L62.3096 439.179Z" fill="#A0616A"/>
<path d="M58.7849 446.542L78.2834 457.559L78.4065 457.28C79.4109 455.001 79.5747 452.364 78.8617 449.948C78.1488 447.533 76.6176 445.536 74.6049 444.399L74.6045 444.399L72.3914 439.327L64.3975 438.631L62.6954 437.67L58.7849 446.542Z" fill="#367DD9"/>
<path d="M92.7206 318.472C92.7206 318.472 89.8887 357.025 89.2807 365.286C88.8637 370.465 87.8414 375.558 86.2405 380.432C86.2405 380.432 85.0244 383.186 85.0244 385.94L71.242 414.299C71.242 414.299 67.0304 417.804 67.6385 420.558C68.2465 423.312 65.0992 424.964 65.0992 424.964L79.6133 428.131C79.6133 428.131 79.0053 426.066 80.8294 425.377C82.6535 424.689 84.1055 418.718 84.1055 418.718L104.482 381.121L119.075 346.698C119.075 346.698 127.587 377.678 129.411 381.121C129.411 381.121 136.1 419.673 137.316 423.116C138.532 426.558 139.14 426.558 138.532 427.935C137.924 429.311 137.924 430.688 138.532 431.377C139.14 432.065 150.693 431.377 150.693 431.377L147.653 382.497L142.18 323.98L114.21 314.342L92.7206 318.472Z" fill="#367DD9"/>
<path d="M120.105 226.435C127.157 226.435 132.874 219.962 132.874 211.978C132.874 203.993 127.157 197.52 120.105 197.52C113.053 197.52 107.336 203.993 107.336 211.978C107.336 219.962 113.053 226.435 120.105 226.435Z" fill="#A0616A"/>
<path d="M143.396 247.563L128.196 237.135C128.196 237.135 127.775 230.66 123.443 230.356C121.269 230.203 118.006 229.969 113.109 229.611C112.075 229.536 111.376 235.946 110.19 235.859L94.1449 240.678L96.5771 287.492C96.5771 287.492 92.9289 306.08 94.1449 309.522C95.361 312.965 91.1047 314.342 92.3208 315.03C93.5369 315.718 92.3208 320.538 92.3208 320.538C92.3208 320.538 116.034 334.306 142.18 323.98L139.748 315.03C140.079 313.86 140.141 312.614 139.928 311.409C139.716 310.205 139.235 309.081 138.532 308.146C138.532 308.146 140.964 304.015 137.924 300.573C137.924 300.573 139.14 294.377 136.1 291.623L135.492 281.985L137.316 277.166L143.396 247.563Z" fill="#E6E6E6"/>
<path d="M109.025 220.237L108.668 219.298C108.622 219.177 104.106 207.09 108.109 199.635C109.961 196.183 113.331 194.234 118.122 193.843C125.619 193.229 130.75 195.243 133.377 199.824C133.818 200.6 134.065 201.497 134.094 202.419C134.122 203.341 133.931 204.255 133.54 205.064C133.149 205.874 132.572 206.549 131.871 207.019C131.169 207.489 130.369 207.736 129.554 207.735H129.453L128.076 205.709L127.996 205.906C127.497 207.128 126.352 207.797 125.01 207.65C124.782 207.632 124.58 207.855 124.417 208.332C124.363 208.541 124.26 208.729 124.119 208.877C123.977 209.025 123.804 209.127 123.616 209.173C122.625 209.392 121.212 207.978 120.579 207.273C120.555 207.436 120.5 207.59 120.418 207.726C120.337 207.862 120.23 207.977 120.106 208.062C119.44 208.498 118.402 207.929 118.105 207.748C115.733 208.318 114.198 208.166 113.54 207.295C113.094 210.867 112.137 217.296 110.99 217.652C110.87 217.684 110.744 217.67 110.631 217.614C110.518 217.559 110.424 217.463 110.363 217.342C110.087 216.936 109.84 216.734 109.686 216.791C109.312 216.925 109.092 218.317 109.06 219.215L109.025 220.237Z" fill="#2F2E41"/>
<path d="M136.708 248.251L142.773 247.135C147.143 251.889 150.119 258.045 151.301 264.774C153.125 275.789 153.733 277.854 153.733 277.854L139.14 281.985L131.236 264.774L136.708 248.251Z" fill="#E6E6E6"/>
<path d="M109.793 262.578L106.045 316.38L201.703 324.923L205.451 271.122L109.793 262.578Z" fill="#EABF26"/>
<path d="M201.68 265.892L115.562 258.2C114.56 258.111 113.553 258.246 112.597 258.597C111.642 258.949 110.756 259.51 109.992 260.249C109.228 260.988 108.6 261.889 108.144 262.903C107.688 263.917 107.413 265.022 107.334 266.156L104.022 313.66C103.863 315.951 104.514 318.22 105.832 319.967C107.149 321.715 109.026 322.799 111.05 322.98L197.168 330.672C198.17 330.762 199.177 330.627 200.133 330.275C201.088 329.924 201.973 329.362 202.737 328.624C203.501 327.885 204.129 326.983 204.586 325.969C205.042 324.956 205.317 323.85 205.396 322.716L208.543 277.566L208.607 276.644L208.707 275.208C208.786 274.074 208.667 272.934 208.356 271.852C208.046 270.77 207.55 269.768 206.897 268.903C206.245 268.037 205.448 267.326 204.553 266.81C203.658 266.293 202.682 265.982 201.68 265.892ZM199.137 307.223L198.591 315.049C198.491 316.431 197.912 317.712 196.981 318.613C196.049 319.513 194.84 319.959 193.619 319.853L182.098 318.825C180.877 318.712 179.745 318.057 178.95 317.002C178.155 315.947 177.761 314.578 177.855 313.195L178.4 305.369C178.501 303.987 179.08 302.706 180.011 301.806C180.943 300.906 182.152 300.46 183.373 300.565L194.89 301.594C196.111 301.708 197.242 302.363 198.038 303.418C198.834 304.472 199.229 305.84 199.137 307.223ZM109.397 303.142C109.487 301.876 110.016 300.701 110.869 299.876C111.723 299.051 112.83 298.643 113.949 298.741L129.308 300.114C129.863 300.163 130.404 300.334 130.9 300.62C131.396 300.905 131.838 301.298 132.2 301.777C132.562 302.256 132.837 302.81 133.009 303.409C133.181 304.009 133.248 304.64 133.205 305.268C133.161 305.897 133.009 306.509 132.757 307.07C132.504 307.632 132.157 308.132 131.734 308.541C131.311 308.95 130.82 309.261 130.291 309.456C129.762 309.651 129.204 309.726 128.649 309.676L128.641 309.678L113.282 308.306C112.727 308.256 112.187 308.083 111.691 307.796C111.195 307.51 110.755 307.116 110.394 306.636C110.033 306.156 109.759 305.601 109.588 305.001C109.417 304.402 109.352 303.77 109.397 303.142ZM112.685 264.434L112.58 263.948L113.022 263.902C113.195 263.881 117.281 263.465 120.461 266.038C123.642 268.61 124.617 273.123 124.659 273.312L124.76 273.799L124.319 273.85C123.694 273.902 123.065 273.898 122.44 273.836C120.452 273.704 118.531 272.969 116.879 271.709C113.699 269.137 112.724 264.624 112.685 264.434Z" fill="#367DD9"/>
<path d="M196.329 313.058L191.493 312.696C191.148 312.671 190.81 312.807 190.552 313.075C190.294 313.342 190.138 313.719 190.118 314.123C190.098 314.526 190.215 314.923 190.444 315.227C190.674 315.531 190.996 315.716 191.341 315.743L196.177 316.104C196.522 316.129 196.86 315.993 197.118 315.726C197.376 315.458 197.532 315.082 197.552 314.678C197.572 314.275 197.455 313.877 197.226 313.573C196.996 313.27 196.674 313.084 196.329 313.058Z" fill="white"/>
<path d="M186.653 311.858L181.661 311.412C181.305 311.381 180.953 311.511 180.681 311.774C180.41 312.037 180.242 312.411 180.214 312.814C180.186 313.217 180.3 313.616 180.532 313.923C180.763 314.231 181.093 314.422 181.449 314.455L186.441 314.901C186.797 314.932 187.149 314.802 187.421 314.539C187.692 314.276 187.86 313.902 187.888 313.499C187.916 313.096 187.802 312.697 187.57 312.389C187.339 312.081 187.009 311.89 186.653 311.858Z" fill="white"/>
<path d="M186.654 305.65L181.662 305.204C181.306 305.173 180.953 305.303 180.682 305.566C180.41 305.829 180.242 306.203 180.214 306.606C180.186 307.009 180.3 307.408 180.532 307.716C180.764 308.024 181.094 308.215 181.45 308.248L186.442 308.693C186.798 308.724 187.15 308.594 187.422 308.331C187.693 308.069 187.861 307.695 187.889 307.291C187.917 306.888 187.803 306.489 187.571 306.181C187.34 305.874 187.01 305.682 186.654 305.65Z" fill="white"/>
<path d="M196.563 306.892L191.571 306.446C191.215 306.415 190.862 306.545 190.591 306.808C190.32 307.07 190.151 307.444 190.123 307.848C190.095 308.251 190.209 308.65 190.441 308.958C190.673 309.265 191.003 309.457 191.359 309.489L196.351 309.935C196.707 309.966 197.059 309.835 197.33 309.573C197.601 309.31 197.769 308.936 197.798 308.533C197.826 308.13 197.711 307.731 197.48 307.423C197.248 307.116 196.919 306.924 196.563 306.892Z" fill="white"/>
<path d="M106.054 281.145L105.99 282.07L207.081 291.061L207.145 290.136L106.054 281.145Z" fill="#081526"/>
<path d="M205.174 275.325L205.11 276.248L201.592 275.935L164.108 272.601L164.175 271.678L201.656 275.013L205.174 275.325Z" fill="#EABF26"/>
<path d="M85.0243 266.839C85.0243 266.839 79.552 293 86.2404 293C92.9289 293 108.738 263.397 108.738 263.397L103.266 255.824L93.4433 271.264L92.9289 263.397L85.0243 266.839Z" fill="#A0616A"/>
<path d="M107.28 264.534C110.22 264.534 112.604 261.835 112.604 258.506C112.604 255.177 110.22 252.479 107.28 252.479C104.34 252.479 101.956 255.177 101.956 258.506C101.956 261.835 104.34 264.534 107.28 264.534Z" fill="#A0616A"/>
<path d="M98.5744 244.809L94.9261 240.678C94.9261 240.678 87.6296 245.497 87.0215 250.316C86.4135 255.136 83.3733 270.281 83.3733 270.281L94.6221 271.314L98.2703 265.118L98.5744 244.809Z" fill="#E6E6E6"/>
<path d="M258.244 281.61C275.347 281.61 289.211 267.714 289.211 250.572C289.211 233.429 275.347 219.533 258.244 219.533C241.142 219.533 227.278 233.429 227.278 250.572C227.278 267.714 241.142 281.61 258.244 281.61Z" fill="#367DD9"/>
<path d="M254.262 265.47C253.459 265.472 252.677 265.198 252.034 264.692L251.994 264.66L243.602 257.91C243.214 257.597 242.888 257.206 242.643 256.76C242.397 256.314 242.238 255.822 242.174 255.312C242.11 254.801 242.142 254.282 242.269 253.785C242.395 253.287 242.614 252.821 242.912 252.412C243.21 252.004 243.581 251.661 244.005 251.403C244.429 251.145 244.898 250.978 245.383 250.911C245.869 250.843 246.362 250.877 246.835 251.01C247.308 251.143 247.752 251.373 248.14 251.686L253.576 256.069L266.421 238.449C266.718 238.041 267.09 237.698 267.514 237.441C267.938 237.183 268.406 237.016 268.891 236.948C269.376 236.881 269.869 236.915 270.342 237.048C270.815 237.181 271.259 237.41 271.647 237.724L271.648 237.724L271.568 237.841L271.65 237.724C272.434 238.358 272.947 239.292 273.076 240.323C273.205 241.353 272.941 242.395 272.34 243.221L257.232 263.936C256.882 264.414 256.433 264.8 255.918 265.065C255.404 265.33 254.838 265.467 254.265 265.465L254.262 265.47Z" fill="white"/>
</g>
<path d="M299.434 203.389H209.623C209.4 203.412 209.178 203.329 209.005 203.158C208.832 202.988 208.722 202.743 208.699 202.477V116.159C208.722 115.893 208.832 115.648 209.005 115.478C209.178 115.307 209.4 115.224 209.623 115.247H299.434C299.657 115.224 299.879 115.307 300.052 115.478C300.225 115.648 300.335 115.893 300.358 116.159V202.477C300.335 202.743 300.225 202.988 300.052 203.158C299.879 203.329 299.657 203.412 299.434 203.389Z" fill="#F0F0F0"/>
<path d="M292.366 123H219.953C219.7 123 219.458 123.119 219.28 123.329C219.101 123.539 219 123.824 219 124.121V190.164C219 190.461 219.101 190.746 219.28 190.956C219.458 191.166 219.7 191.285 219.953 191.285H292.366C292.618 191.285 292.861 191.166 293.039 190.956C293.218 190.746 293.318 190.461 293.319 190.164V124.121C293.318 123.824 293.218 123.539 293.039 123.329C292.861 123.119 292.618 123 292.366 123Z" fill="white"/>
<path d="M272.168 192.219C272.581 190.513 272.901 189.043 273.066 188.002C273.117 187.681 273.122 187.352 273.081 187.03C272.465 182 261.35 177.748 259.925 177.223L259.581 172.843L245.59 171.113L243.819 176.715L238.797 178.877C238.616 178.954 238.443 179.057 238.282 179.182C237.861 179.508 237.537 179.976 237.354 180.52C237.171 181.065 237.138 181.661 237.259 182.228L239.398 192.219L272.168 192.219Z" fill="#367DD9"/>
<path d="M243.381 192.219H233.472C233.827 189.304 234.144 186.726 234.351 185.086C235.108 179.117 238.408 178.608 238.924 178.567C238.965 178.562 238.991 178.562 238.993 178.562H241.077L243.381 192.219Z" fill="#367DD9"/>
<path d="M272.214 192.219H274.347C274.243 190.239 273.759 188.345 272.953 186.764C272.549 185.968 272.027 185.321 271.428 184.873L271.267 184.77L269.392 192.219H272.214Z" fill="#367DD9"/>
<path d="M252.051 167.388C257.524 167.388 261.96 162.386 261.96 156.214C261.96 150.043 257.524 145.04 252.051 145.04C246.579 145.04 242.142 150.043 242.142 156.214C242.142 162.386 246.579 167.388 252.051 167.388Z" fill="#A0616A"/>
<ellipse opacity="0.22" cx="248.955" cy="157.26" rx="1.85797" ry="1.86232" fill="white"/>
<path d="M245.376 150.595C246.42 151.969 248.187 152.356 249.817 152.513C253.628 152.747 257.45 152.401 261.177 151.483C261.409 153.97 260.779 156.651 262.096 158.697C262.714 156.221 263.074 153.673 263.167 151.105C263.265 150.003 263.136 148.891 262.789 147.853C262.603 147.333 262.29 146.881 261.884 146.549C261.479 146.217 260.998 146.018 260.496 145.975C261.248 145.341 262.128 144.923 263.059 144.757L259.856 142.969L260.679 142.03L254.88 141.636L256.56 140.45C254.031 140.065 251.473 139.975 248.928 140.184C247.738 140.184 246.572 140.545 245.553 141.226C244.596 141.987 244.042 143.499 244.637 144.616C243.893 144.752 243.192 145.097 242.602 145.617C242.011 146.138 241.55 146.818 241.262 147.592C240.897 148.823 240.809 150.135 241.005 151.412C241.224 153.461 241.652 155.476 242.283 157.417" fill="#2F2E41"/>
<line x1="283.517" y1="134.292" x2="283.517" y2="171.538" stroke="#367DD9"/>
<line x1="268.154" y1="133.792" x2="283.017" y2="133.792" stroke="#367DD9"/>
<line x1="268.154" y1="171.038" x2="283.017" y2="171.038" stroke="#367DD9"/>
<path d="M226.54 134.292V171.538H227.54V134.292H226.54Z" fill="#367DD9"/>
<line x1="226.04" y1="133.792" x2="240.903" y2="133.792" stroke="#367DD9"/>
<line x1="226.04" y1="171.038" x2="240.903" y2="171.038" stroke="#367DD9"/>
<ellipse opacity="0.22" cx="256.386" cy="157.26" rx="1.85797" ry="1.86232" fill="white"/>
<defs>
<clipPath id="clip0_12_299">
<rect width="370.354" height="271.899" fill="white" transform="translate(0.606567 186.011)"/>
</clipPath>
</defs>
</svg>
