<svg width="538" height="531" viewBox="0 0 538 531" fill="none" xmlns="http://www.w3.org/2000/svg">
<g clip-path="url(#clip0_29_635)">
<path d="M16.1262 159.262C14.044 159.914 11.8268 160.006 9.69779 159.528C7.56879 159.051 5.60326 158.021 3.99919 156.541C2.39513 155.062 1.20919 153.187 0.560825 151.103C-0.0875411 149.02 -0.17543 146.803 0.306018 144.674C7.52972 114.622 34.9976 41.128 135.064 10.2165C178.409 -3.17319 219.978 -3.40177 258.564 9.53211C290.308 20.1284 311.381 36.7103 321.461 44.7249C324.022 46.7511 325.673 49.7117 326.052 52.9555C326.43 56.1992 325.504 59.4603 323.478 62.0215C323.453 62.0532 323.427 62.0848 323.402 62.1163C321.321 64.6853 318.314 66.3338 315.03 66.7067C311.745 67.0796 308.445 66.1469 305.841 64.1096C287.578 49.72 232.157 6.00455 142.334 33.7516C54.628 60.8449 30.8034 124.218 24.624 150.145C24.1547 152.287 23.1184 154.263 21.6234 155.867C20.1284 157.471 18.2298 158.644 16.1262 159.262Z" fill="#367DD9"/>
<path d="M288.866 329.481C287.872 329.802 286.841 329.996 285.799 330.058C207.624 334.268 157.885 269.322 155.843 266.615L155.465 265.99C154.218 264.056 124.123 218.267 137.372 181.902C143.458 165.277 156.916 153.608 177.488 147.253C196.621 141.342 212.277 143.09 225.603 152.606C236.53 160.359 243.533 171.921 250.321 183.086C264.437 206.268 273.088 218.063 299.92 211.258C311.701 208.268 317.202 199.057 319.716 191.881C326.482 172.357 320.485 145.739 304.62 125.601C284.122 99.4746 226.76 56.0805 155.985 77.9434C125.762 87.2796 101.028 105.678 84.4638 131.011C70.7417 152.036 62.7644 178.148 62.5896 202.499C62.3142 247.84 99.4737 307.49 99.826 308.031C100.682 309.399 101.259 310.923 101.526 312.514C101.793 314.106 101.744 315.735 101.381 317.308C101.018 318.88 100.349 320.366 99.4124 321.68C98.4754 322.995 97.2888 324.111 95.9203 324.967C95.8824 324.991 95.8443 325.014 95.806 325.038C93.0021 326.786 89.623 327.362 86.3982 326.64C83.1735 325.919 80.362 323.958 78.571 321.181C76.8938 318.453 37.2153 254.851 37.535 202.449C37.98 145.649 72.4964 77.8602 148.689 54.3235C183.907 43.4444 220.918 45.2729 255.747 59.5529C282.742 70.6887 307.726 89.1228 324.244 110.172C345.341 137.04 352.774 172.21 343.17 199.659C336.767 217.959 323.511 230.586 305.894 235.1C259.981 246.78 241.994 217.374 228.876 195.923C215.406 173.933 207.955 163.622 184.674 170.814C171.891 174.763 164.015 181.09 160.703 190.182C156.196 202.61 160.467 218.539 164.844 229.707C164.89 229.824 164.935 229.94 164.981 230.056C170.592 244.25 179.35 256.987 190.594 267.309C208.606 283.942 242.045 307.656 284.664 305.369C287.922 305.167 291.127 306.267 293.574 308.428C296.021 310.588 297.509 313.633 297.712 316.891C297.714 316.93 297.716 316.97 297.719 317.009C297.819 319.772 297.006 322.49 295.406 324.745C293.805 326.999 291.507 328.664 288.866 329.481Z" fill="#367DD9"/>
<path d="M194.068 352.83C192.439 353.334 190.724 353.503 189.027 353.326C187.331 353.148 185.688 352.629 184.198 351.799C145.64 329.953 118.573 300.57 99.0816 259.388L99.0031 259.134C86.719 231.676 79.3241 189.725 95.6359 154.268C107.678 128.106 130.282 109.717 162.707 99.7007C201.057 87.8539 236.766 96.5762 266.073 124.803C279.402 137.831 290.24 153.182 298.057 170.102C299.303 173.146 299.301 176.558 298.05 179.601C296.8 182.643 294.402 185.071 291.376 186.359C288.349 187.648 284.937 187.693 281.877 186.485C278.818 185.277 276.357 182.914 275.026 179.905C268.408 165.784 259.27 152.988 248.06 142.145C225.47 120.653 199.21 114.298 169.918 123.347C144.605 131.166 127.175 144.99 118.252 164.438C105.385 192.432 112.01 227.388 121.623 248.901C138.809 285.324 162.648 311.159 196.584 330.352C197.986 331.143 199.218 332.202 200.211 333.469C201.203 334.736 201.936 336.186 202.369 337.736C202.801 339.286 202.924 340.906 202.73 342.504C202.536 344.102 202.029 345.645 201.238 347.047C201.207 347.103 201.175 347.158 201.143 347.213C199.562 349.897 197.041 351.899 194.068 352.83Z" fill="#367DD9"/>
<path d="M198.128 229.717C206.937 229.717 214.078 222.577 214.078 213.768C214.078 204.96 206.937 197.819 198.128 197.819C189.32 197.819 182.179 204.96 182.179 213.768C182.179 222.577 189.32 229.717 198.128 229.717Z" fill="#367DD9"/>
<path d="M325.794 407.952L325.792 407.951C325.013 407.836 324.264 407.567 323.59 407.16C322.915 406.753 322.327 406.216 321.862 405.581L321.861 405.58L313.1 393.701L313.1 393.701C312.632 393.067 312.294 392.347 312.104 391.582C311.915 390.817 311.878 390.023 311.996 389.244C312.113 388.464 312.383 387.716 312.79 387.041C313.197 386.367 313.733 385.779 314.367 385.311L314.367 385.311L389.267 330.071L388.97 329.669L389.267 330.071C389.901 329.603 390.621 329.265 391.386 329.075C392.151 328.886 392.945 328.849 393.725 328.967C394.504 329.084 395.252 329.354 395.927 329.761C396.602 330.168 397.19 330.704 397.657 331.338L406.417 343.216L406.82 342.92L406.417 343.216C407.362 344.497 407.759 346.1 407.522 347.674C407.284 349.247 406.431 350.662 405.151 351.607L330.251 406.847L330.25 406.848C329.224 407.609 327.981 408.02 326.703 408.02C326.399 408.02 326.095 407.997 325.794 407.952Z" fill="#FFB6B6" stroke="black"/>
<path d="M379.897 364.044L368.433 348.501C367.489 347.22 367.091 345.617 367.329 344.043C367.567 342.47 368.42 341.055 369.701 340.111L413.562 301.681C414.842 300.736 416.446 300.339 418.019 300.577C419.593 300.815 421.007 301.668 421.952 302.948L442.915 327.991C443.86 329.272 444.257 330.876 444.019 332.449C443.781 334.022 442.928 335.437 441.648 336.382L388.287 365.311C387.006 366.256 385.403 366.653 383.829 366.415C382.256 366.178 380.841 365.325 379.897 364.044Z" fill="#367DD9"/>
<path d="M450.373 530.252H435.615C433.891 530.25 432.239 529.564 431.021 528.346C429.802 527.127 429.116 525.475 429.115 523.752V400.737C429.116 399.014 429.802 397.361 431.021 396.143C432.239 394.924 433.891 394.239 435.615 394.237H450.373C452.097 394.239 453.749 394.924 454.967 396.143C456.186 397.361 456.871 399.014 456.873 400.737V523.752C456.871 525.475 456.186 527.127 454.967 528.346C453.749 529.564 452.097 530.25 450.373 530.252Z" fill="#FFB6B6"/>
<path d="M479.566 530.252H464.806C463.083 530.25 461.431 529.564 460.212 528.346C458.993 527.127 458.308 525.475 458.306 523.752V400.737C458.308 399.014 458.993 397.361 460.212 396.143C461.431 394.924 463.083 394.239 464.806 394.237H479.566C481.289 394.239 482.941 394.924 484.16 396.143C485.378 397.361 486.064 399.014 486.066 400.737V523.752C486.064 525.475 485.378 527.127 484.16 528.346C482.941 529.564 481.289 530.25 479.566 530.252Z" fill="#FFB6B6"/>
<path d="M451.216 249.262C480.774 249.262 504.736 225.3 504.736 195.742C504.736 166.185 480.774 142.223 451.216 142.223C421.659 142.223 397.697 166.185 397.697 195.742C397.697 225.3 421.659 249.262 451.216 249.262Z" fill="#FFB6B6"/>
<path d="M534.072 467.175L503.078 329.529V297.008C503.078 294.886 502.235 292.851 500.735 291.351C499.235 289.851 497.2 289.008 495.078 289.008H465.388V268.095C465.388 267.044 465.181 266.004 464.779 265.033C464.377 264.063 463.787 263.181 463.045 262.438C462.302 261.695 461.42 261.106 460.449 260.704C459.479 260.302 458.438 260.095 457.388 260.095H441.388C440.337 260.095 439.297 260.302 438.326 260.704C437.356 261.106 436.474 261.695 435.731 262.438C434.988 263.181 434.399 264.063 433.997 265.033C433.595 266.004 433.388 267.044 433.388 268.095V289.008H403.697C401.576 289.008 399.541 289.851 398.04 291.351C396.54 292.851 395.697 294.886 395.697 297.008V468.095C395.698 469.121 395.896 470.137 396.282 471.088C396.643 472.796 397.566 474.335 398.902 475.46C400.239 476.584 401.913 477.23 403.659 477.294L529.083 481.476C536.579 481.672 539.98 471.923 534.072 467.175Z" fill="#367DD9"/>
<path d="M487.088 428.594H472.328C470.605 428.592 468.953 427.907 467.734 426.688C466.516 425.47 465.83 423.818 465.828 422.094V336.839C465.83 335.116 466.516 333.464 467.734 332.245C468.953 331.027 470.605 330.341 472.328 330.339H487.088C488.811 330.341 490.464 331.027 491.682 332.245C492.901 333.464 493.586 335.116 493.588 336.839V422.094C493.586 423.818 492.901 425.47 491.682 426.688C490.464 427.907 488.811 428.592 487.088 428.594Z" fill="#FFB6B6"/>
<path d="M511.813 246.061C507.141 249.097 488.672 251.11 487.356 245.207L487.328 245.077C486.412 240.752 487.173 236.235 487.436 231.798C487.698 227.361 487.314 222.486 484.637 219.224C479.649 213.142 470.773 216.366 463.559 214.828C459.334 213.763 455.597 210.996 453.048 207.044C450.499 203.093 449.312 198.227 449.71 193.359C449.813 192.437 449.974 191.513 450.155 190.591C450.606 188.253 450.571 185.828 450.053 183.508C449.535 181.188 448.547 179.035 447.168 177.218C445.789 175.401 444.056 173.97 442.105 173.037C440.153 172.104 438.037 171.694 435.922 171.84C428.632 172.311 420.762 174.805 414.73 168.707C410.066 163.992 408.928 151.718 410.977 145.038C414.422 133.812 436.484 127.935 446.117 124.704C458.031 120.817 470.562 119.976 482.799 122.244C495.037 124.511 506.673 129.83 516.862 137.812C522.947 142.655 528.629 148.74 531.222 156.62C533.815 164.499 532.564 174.44 526.717 179.641C531.249 185.061 534.441 191.73 535.973 198.981C537.504 206.232 537.321 213.811 535.441 220.957C532.553 231.466 518.768 241.542 511.813 246.061Z" fill="#081526"/>
<path d="M335.552 360.893L335.239 361.105L329.432 352.538C328.99 351.887 328.425 351.329 327.768 350.896C327.111 350.464 326.375 350.165 325.603 350.017C324.83 349.868 324.036 349.874 323.266 350.032C322.495 350.191 321.764 350.5 321.112 350.941L302.963 363.246C302.311 363.687 301.754 364.252 301.321 364.909C300.888 365.566 300.589 366.302 300.441 367.074C300.293 367.847 300.298 368.641 300.457 369.412C300.615 370.182 300.924 370.914 301.366 371.565L333.227 418.563C333.668 419.214 334.234 419.772 334.891 420.204C335.548 420.637 336.283 420.936 337.056 421.084C337.829 421.232 338.623 421.227 339.393 421.069C340.164 420.91 340.895 420.601 341.546 420.16L359.696 407.855C360.347 407.414 360.905 406.849 361.338 406.192C361.77 405.535 362.069 404.799 362.218 404.026C362.366 403.254 362.361 402.46 362.202 401.689C362.043 400.919 361.734 400.187 361.293 399.536L339.373 367.203L339.686 366.991L335.552 360.893Z" fill="#3F3D56"/>
<path d="M322.485 353.166L320.192 354.72C320.473 354.907 320.703 355.16 320.863 355.458C321.023 355.755 321.107 356.087 321.109 356.424C321.11 356.761 321.029 357.094 320.871 357.392C320.714 357.691 320.485 357.946 320.206 358.135L310.142 364.958C309.863 365.147 309.541 365.265 309.206 365.3C308.87 365.336 308.531 365.289 308.218 365.163C307.906 365.037 307.628 364.835 307.412 364.577C307.195 364.318 307.045 364.011 306.975 363.681L304.833 365.133C304.362 365.452 303.959 365.861 303.647 366.335C303.334 366.81 303.118 367.342 303.01 367.901C302.903 368.459 302.907 369.033 303.022 369.59C303.136 370.147 303.36 370.676 303.679 371.146L334.472 416.569C334.791 417.04 335.2 417.443 335.675 417.756C336.15 418.068 336.681 418.284 337.24 418.392C337.798 418.499 338.372 418.495 338.929 418.38C339.486 418.266 340.015 418.042 340.486 417.723L358.137 405.757C359.088 405.112 359.743 404.117 359.96 402.989C360.176 401.861 359.936 400.694 359.292 399.743L328.498 354.32C328.179 353.85 327.77 353.447 327.296 353.134C326.821 352.821 326.289 352.605 325.73 352.498C325.172 352.391 324.598 352.394 324.041 352.509C323.484 352.624 322.956 352.847 322.485 353.166Z" fill="white"/>
</g>
<defs>
<clipPath id="clip0_29_635">
<rect width="538" height="531" fill="white"/>
</clipPath>
</defs>
</svg>
