<svg width="612" height="584" viewBox="0 0 612 584" fill="none" xmlns="http://www.w3.org/2000/svg">
<g clip-path="url(#clip0_29_636)">
<path d="M541.392 516.749C548.576 529.447 542.484 572.334 542.484 572.334C542.484 572.334 502.593 555.449 495.411 542.756C491.97 536.659 491.09 529.445 492.965 522.7C494.84 515.955 499.316 510.23 505.41 506.783C511.504 503.336 518.716 502.45 525.463 504.319C532.21 506.187 537.939 510.658 541.392 516.749Z" fill="#77C7D9"/>
<path d="M543.062 572.279L542.215 572.457C534.053 533.679 505.549 507.382 505.262 507.121L505.845 506.481C506.134 506.743 534.841 533.219 543.062 572.279Z" fill="white"/>
<path d="M606.663 531.208C596.915 548.891 541.957 572.846 541.957 572.846C541.957 572.846 532.896 513.583 542.638 495.905C547.32 487.415 555.182 481.132 564.496 478.439C573.81 475.746 583.812 476.863 592.302 481.544C600.792 486.225 607.075 494.088 609.768 503.401C612.462 512.715 611.345 522.717 606.663 531.208Z" fill="#77C7D9"/>
<path d="M542.442 573.487L541.616 572.618C581.386 534.85 591.681 482.173 591.78 481.646L592.958 481.867C592.858 482.398 582.5 535.444 542.442 573.487Z" fill="white"/>
<path d="M193.566 405.919C187.276 405.898 181.014 405.088 174.926 403.508L173.726 403.176L172.613 402.618C132.371 382.442 98.4211 355.791 71.7059 323.407C49.5914 296.442 32.3499 265.827 20.7568 232.937C6.89317 193.559 0.223417 152.01 1.06592 110.272C1.08292 109.396 1.0973 108.72 1.0973 108.254C1.0973 87.9645 12.3593 70.1623 29.7885 62.9C43.128 57.3419 164.244 7.59478 172.995 4.00041C189.475 -4.25731 207.057 2.63506 209.87 3.84035C216.181 6.4206 328.146 52.2153 352.341 63.7366C377.277 75.6107 383.93 96.9422 383.93 107.674C383.93 156.263 375.515 201.672 358.919 242.642C345.515 275.804 326.519 306.419 302.756 333.153C256.91 384.747 211.051 403.037 210.608 403.198C205.127 405.084 199.361 406.005 193.566 405.919ZM182.781 379.205C186.757 380.097 195.911 381.434 201.877 379.257C209.456 376.493 247.839 356.589 283.707 316.225C333.264 260.456 358.41 190.35 358.446 107.854C358.358 106.182 357.171 94.2618 341.385 86.745C317.659 75.4467 201.281 27.8601 200.108 27.3805L199.787 27.2442C197.348 26.2222 189.586 24.0695 184.236 26.8732L183.165 27.3726C181.868 27.9054 53.3017 80.7102 39.59 86.4233C29.9984 90.4198 26.5809 100.321 26.5809 108.254C26.5809 108.833 26.5659 109.677 26.5447 110.767C25.4488 167.214 38.511 306.113 182.781 379.205Z" fill="#3F3D56"/>
<path d="M178.324 15.5861C178.324 15.5861 48.5894 68.8699 34.6893 74.6616C20.7891 80.4533 13.8391 94.3534 13.8391 108.254C13.8391 122.154 3.41402 303.532 178.324 391.228C178.324 391.228 194.199 395.62 206.243 391.228C218.287 386.835 371.188 312.701 371.188 107.674C371.188 107.674 371.188 86.8242 346.863 75.2408C322.538 63.6574 204.929 15.5861 204.929 15.5861C204.929 15.5861 190.487 9.21519 178.324 15.5861Z" fill="#367DD9"/>
<path opacity="0.1" d="M192.224 57.2865V341.537C192.224 341.537 61.3311 278.53 62.4895 112.887L192.224 57.2865Z" fill="#081526"/>
<path d="M193.931 261.581L152.235 207.969L176.483 189.11L196.226 214.494L262.921 144.088L285.224 165.219L193.931 261.581Z" fill="white"/>
<path d="M439.206 568.237L454.671 568.236L462.029 508.583L439.203 508.584L439.206 568.237Z" fill="#FFB8B8"/>
<path d="M435.261 563.188L465.718 563.186H465.719C470.867 563.187 475.804 565.232 479.444 568.872C483.084 572.511 485.129 577.448 485.129 582.596V583.227L435.261 583.229L435.261 563.188Z" fill="#2F2E41"/>
<path d="M491.206 568.237L506.671 568.236L514.029 508.583L491.203 508.584L491.206 568.237Z" fill="#FFB8B8"/>
<path d="M487.261 563.188L517.718 563.186H517.719C522.867 563.187 527.804 565.232 531.444 568.872C535.084 572.511 537.129 577.448 537.129 582.596V583.227L487.261 583.229L487.261 563.188Z" fill="#2F2E41"/>
<path d="M463.514 358.75L467.224 548L437.213 546.139L416.393 425.597L409.817 343.408L463.514 358.75Z" fill="#2F2E41"/>
<path d="M515.018 326.971L519.224 551L484.224 550L476.664 416.83L463.514 368.613L409.818 343.409L418.584 283.137L497.485 282.042L515.018 326.971Z" fill="#2F2E41"/>
<path d="M454.676 126.432C469.498 126.432 481.514 114.416 481.514 99.5939C481.514 84.7715 469.498 72.7556 454.676 72.7556C439.853 72.7556 427.837 84.7715 427.837 99.5939C427.837 114.416 439.853 126.432 454.676 126.432Z" fill="#FFB8B8"/>
<path d="M476.936 137.738L481.047 143.966L492.006 174.649L483.239 294.095L431.734 295.192L425.16 158.211L438.933 140.995L476.936 137.738Z" fill="#CCCCCC"/>
<path d="M404.338 161.499L395.572 160.403C395.572 160.403 393.38 161.499 392.284 169.17C391.188 176.841 378.038 244.783 378.038 244.783L395.572 328.067L415.297 301.767L403.243 255.741L415.297 209.716L404.338 161.499Z" fill="#367DD9"/>
<path d="M516.114 160.404H522.689L539.127 249.166L523.785 318.204L508.443 293L512.826 265.604L510.635 241.496L502.964 227.249L516.114 160.404Z" fill="#367DD9"/>
<path d="M470.535 99.5939L465.655 98.374C465.655 98.374 461.995 77.6353 453.456 80.0751C444.916 82.515 422.958 84.9548 422.958 75.1954C422.958 65.436 443.696 56.8966 455.896 58.1165C468.095 59.3365 483.675 63.3835 487.614 81.295C493.927 110.008 474.587 117.26 474.587 117.26L474.909 116.215C475.803 113.312 475.867 110.217 475.094 107.28C474.321 104.343 472.741 101.681 470.535 99.5939Z" fill="#2F2E41"/>
<path d="M396.668 160.403L431.734 146.157L439.953 140.13L464.61 249.166L476.116 136.843L521.593 160.403L506.252 234.92L504.06 263.412L510.635 286.425C510.635 286.425 533.648 302.862 525.977 320.396C518.306 337.929 509.539 339.025 509.539 339.025C509.539 339.025 472.281 303.958 470.089 295.191C467.897 286.425 464.61 271.083 464.61 271.083C464.61 271.083 445.98 341.217 424.064 340.121C402.147 339.025 402.147 316.012 402.147 316.012L407.626 291.904L416.393 266.7L412.009 225.058L396.668 160.403Z" fill="#367DD9"/>
</g>
<defs>
<clipPath id="clip0_29_636">
<rect width="612" height="584" fill="white"/>
</clipPath>
</defs>
</svg>
